<?xml version="1.0" standalone="no"?>
<!DOCTYPE svg PUBLIC "-//W3C//DTD SVG 20010904//EN"
 "http://www.w3.org/TR/2001/REC-SVG-20010904/DTD/svg10.dtd">
<svg version="1.0" xmlns="http://www.w3.org/2000/svg"
 width="920.000000pt" height="920.000000pt" viewBox="0 0 920.000000 920.000000"
 preserveAspectRatio="xMidYMid meet">
<metadata>
Created by potrace 1.11, written by Peter Selinger 2001-2013
</metadata>
<g transform="translate(0.000000,920.000000) scale(0.100000,-0.100000)"
fill="#000000" stroke="none">
<path d="M4537 7964 c-3 -3 -54 -27 -114 -53 -122 -54 -177 -79 -281 -127 -40
-19 -75 -34 -77 -34 -2 0 -43 -18 -92 -41 -48 -23 -158 -72 -243 -109 -174
-76 -238 -105 -358 -161 -45 -22 -85 -39 -87 -39 -3 0 -36 -14 -73 -31 -37
-17 -105 -49 -152 -71 -47 -21 -103 -48 -125 -58 -22 -10 -107 -48 -190 -83
-82 -36 -181 -79 -220 -97 -198 -90 -278 -126 -475 -214 -118 -52 -280 -125
-360 -161 -80 -37 -166 -75 -192 -85 -26 -11 -78 -35 -115 -54 -38 -18 -103
-48 -146 -66 -43 -18 -76 -37 -74 -43 2 -6 55 -30 118 -53 63 -23 159 -58 214
-78 55 -21 120 -44 145 -52 25 -8 53 -19 62 -24 28 -15 45 -12 91 17 23 15 51
32 62 39 20 11 213 129 365 224 47 29 134 82 193 119 60 36 119 73 132 81 13
8 54 33 92 56 99 59 257 158 343 215 41 27 82 52 90 57 19 9 152 89 245 147
39 24 124 75 190 115 66 39 161 97 211 128 50 31 190 117 310 191 120 73 260
159 309 191 50 32 123 77 163 100 40 23 75 46 78 51 6 10 -29 12 -39 3z"/>
<path d="M4910 7953 c0 -4 84 -60 187 -123 102 -63 218 -136 257 -161 111 -71
303 -189 309 -189 3 0 27 -14 53 -32 27 -18 93 -60 148 -93 107 -65 380 -233
447 -275 70 -44 262 -162 339 -208 88 -52 248 -149 270 -163 167 -104 651
-404 739 -458 64 -38 33 -43 271 44 80 29 194 71 254 92 61 22 111 44 113 50
2 5 -16 18 -39 28 -49 20 -249 110 -481 214 -87 39 -160 71 -162 71 -2 0 -56
25 -120 55 -63 30 -118 55 -121 55 -5 0 -72 30 -170 75 -27 13 -88 40 -135 60
-46 20 -125 57 -174 81 -50 24 -93 44 -97 44 -3 0 -52 22 -109 49 -57 27 -167
76 -244 111 -77 34 -158 70 -180 80 -22 10 -112 50 -200 90 -88 39 -178 80
-200 90 -218 99 -449 200 -685 300 -36 15 -102 46 -148 68 -95 47 -122 57
-122 45z"/>
<path d="M3695 6828 c-27 -5 -87 -27 -132 -49 -70 -33 -100 -55 -186 -141
-110 -110 -182 -210 -261 -366 -78 -155 -113 -277 -122 -433 -6 -87 -4 -115
11 -160 41 -123 108 -178 224 -187 59 -4 76 -1 129 23 141 63 212 184 348 593
59 178 66 196 97 230 22 23 90 32 102 12 3 -5 -13 -42 -37 -82 -90 -153 -148
-311 -189 -516 -38 -191 -31 -490 17 -692 30 -127 46 -172 96 -270 28 -52 38
-84 36 -108 -3 -32 -7 -36 -58 -51 -107 -34 -159 -76 -204 -167 -45 -90 -58
-307 -25 -429 6 -22 21 -68 35 -102 34 -87 32 -112 -18 -175 -37 -46 -43 -59
-43 -102 0 -44 4 -51 42 -86 52 -46 148 -79 263 -91 47 -4 110 -16 140 -25 79
-24 304 -25 381 -2 31 10 67 26 80 37 22 17 41 18 273 15 242 -4 250 -4 302
-29 107 -50 304 -57 454 -14 41 11 97 20 123 20 138 -4 302 79 323 163 7 28
-16 75 -62 130 -19 22 -34 51 -34 64 0 13 16 67 36 119 29 79 36 114 42 206
l7 112 35 7 c19 3 71 13 115 21 163 30 278 96 359 207 75 101 90 153 90 305 0
120 -2 135 -28 198 -59 141 -142 210 -269 223 -56 6 -72 3 -111 -16 -57 -27
-82 -68 -126 -205 -46 -142 -83 -206 -158 -277 -75 -70 -136 -101 -190 -96
l-37 3 -3 55 c-3 49 3 68 46 161 81 172 130 357 161 610 21 163 7 313 -43 478
-28 90 -107 265 -149 326 -14 21 -23 43 -21 50 7 18 50 35 89 35 65 0 88 -40
176 -301 140 -419 257 -572 438 -572 112 0 188 47 233 147 20 44 23 67 23 171
0 131 -17 216 -65 340 -126 319 -309 548 -516 643 -203 93 -419 56 -618 -105
-56 -45 -72 -54 -85 -45 -36 25 -159 92 -170 92 -6 0 -19 4 -29 9 -35 20 -120
41 -201 51 -146 19 -364 -22 -512 -95 -39 -19 -76 -35 -81 -35 -6 0 -38 21
-72 46 -52 40 -104 69 -191 106 -63 26 -188 34 -280 16z m1215 -95 c90 -23
180 -56 180 -65 0 -4 5 -8 11 -8 17 0 139 -82 201 -136 55 -48 165 -165 201
-214 106 -149 208 -397 225 -548 15 -145 -5 -395 -47 -567 -22 -91 -67 -228
-87 -265 -7 -14 -24 -50 -38 -80 -25 -54 -56 -110 -66 -120 -3 -3 -22 -30 -43
-60 -49 -72 -166 -184 -232 -222 -139 -81 -222 -106 -380 -117 -108 -8 -292 3
-339 19 -16 5 -41 10 -56 10 -36 0 -157 43 -239 85 -141 72 -219 140 -317 276
-130 179 -193 458 -181 793 6 159 30 342 48 361 5 5 9 17 9 27 0 27 37 132 76
217 61 133 184 300 279 381 16 14 37 32 45 40 57 54 235 148 320 170 25 6 56
15 70 21 75 28 257 30 360 2z m-1380 -126 c0 -7 -22 -35 -50 -62 -40 -39 -52
-47 -62 -37 -17 17 7 59 51 89 38 26 61 29 61 10z m2599 -84 c56 -57 141 -181
141 -205 0 -32 -19 -19 -56 40 -20 31 -63 87 -95 123 -33 37 -59 72 -59 78 0
22 23 10 69 -36z m-2759 -79 c0 -9 -15 -42 -34 -73 -30 -49 -73 -125 -97 -171
-13 -24 -35 -80 -59 -150 -30 -83 -48 -120 -60 -120 -16 0 -11 43 15 136 37
129 122 292 188 362 34 36 47 40 47 16z m2825 -1255 c97 -18 139 -48 192 -138
61 -102 78 -277 38 -396 -51 -153 -187 -268 -365 -306 -95 -21 -146 -27 -161
-18 -10 5 -22 32 -29 61 -7 29 -21 70 -32 91 -23 47 -86 117 -104 117 -29 0
-21 19 24 51 114 80 164 159 236 368 42 122 64 154 121 173 11 3 20 6 21 7 0
1 27 -4 59 -10z m-679 -861 c-4 -189 -11 -365 -15 -391 -12 -75 0 -118 53
-183 46 -55 48 -61 43 -107 -8 -86 -50 -121 -183 -152 -103 -25 -309 -18 -377
13 -73 33 -83 70 -117 447 -6 72 -15 170 -20 219 -5 49 -7 92 -5 97 3 4 29 10
58 14 131 18 305 108 413 213 67 65 124 130 124 141 0 8 21 31 29 31 2 0 1
-154 -3 -342z m-1551 217 c42 -41 85 -77 96 -80 10 -4 19 -10 19 -15 0 -5 10
-12 23 -15 12 -4 36 -18 54 -31 17 -13 35 -24 40 -24 4 0 40 -13 78 -28 39
-16 103 -37 143 -47 41 -10 76 -24 79 -31 3 -7 -5 -120 -16 -251 -42 -461 -45
-477 -117 -513 -46 -23 -58 -25 -204 -25 -133 0 -165 4 -227 23 -97 30 -121
53 -133 122 -8 52 -7 57 20 95 88 121 81 97 70 231 -9 115 -14 664 -6 664 2 0
39 -34 81 -75z m-149 -2 c-1 -89 15 -554 21 -621 l6 -73 -43 -44 c-23 -23 -42
-47 -42 -51 0 -5 -5 -20 -10 -34 -9 -23 -11 -78 -5 -138 1 -12 9 -27 17 -32
13 -8 13 -10 -2 -10 -24 0 -70 22 -89 42 -17 19 -34 25 -24 8 3 -5 3 -10 -2
-10 -14 1 -43 27 -43 38 0 6 -7 9 -15 6 -12 -5 -15 2 -15 29 0 26 8 43 30 65
17 17 30 35 30 40 0 5 7 15 15 22 23 19 13 117 -19 182 -27 57 -33 78 -43 148
-12 94 3 305 24 318 6 4 13 18 15 32 2 19 8 24 25 23 16 -2 21 2 16 12 -8 23
15 44 64 56 24 6 46 15 49 20 3 5 13 9 23 9 13 0 17 -8 17 -37z m1861 12 c28
-14 54 -32 57 -40 3 -8 11 -15 18 -15 22 0 57 -104 69 -202 9 -72 8 -113 -1
-180 -7 -49 -17 -88 -21 -88 -5 0 -9 -11 -9 -24 0 -13 -11 -54 -25 -90 -27
-70 -26 -96 4 -151 9 -16 28 -40 44 -53 31 -28 32 -33 11 -77 -11 -24 -30 -39
-73 -59 -32 -14 -70 -26 -85 -26 -24 0 -25 2 -18 33 4 17 6 48 5 67 -1 19 -3
52 -4 73 -1 20 -6 37 -11 37 -13 0 -72 70 -79 94 -3 12 -2 73 2 136 5 63 9
222 9 353 l0 237 28 0 c16 0 51 -11 79 -25z m-847 -294 c3 -1 6 -9 7 -18 0
-10 4 -69 8 -132 5 -77 4 -112 -3 -107 -16 10 -21 -30 -13 -106 1 -5 7 -8 15
-8 30 0 47 -144 24 -206 -6 -17 -8 -40 -3 -50 7 -18 7 -18 15 1 6 17 9 14 15
-18 4 -21 4 -41 0 -45 -4 -4 -95 -7 -203 -7 l-197 0 1 25 c0 14 6 61 13 105 7
44 17 143 23 220 15 221 27 336 37 351 1 1 250 -4 261 -5z"/>
<path d="M4290 6188 c-220 -63 -448 -505 -377 -733 43 -142 196 -196 354 -125
49 23 85 50 143 108 171 174 237 378 179 550 -25 73 -100 156 -172 190 -51 24
-73 26 -127 10z m-12 -350 c19 -19 14 -56 -8 -63 -24 -8 -50 10 -50 34 0 19
19 41 35 41 6 0 16 -5 23 -12z"/>
<path d="M5090 5888 c-41 -22 -64 -76 -56 -131 18 -121 181 -138 225 -24 17
45 8 98 -22 132 -27 31 -108 44 -147 23z m40 -53 c26 -31 -13 -82 -44 -56 -19
16 -21 57 -3 64 22 9 34 7 47 -8z"/>
<path d="M4620 5134 c-214 -24 -314 -149 -258 -320 47 -145 177 -215 368 -201
113 9 166 31 232 97 60 61 78 101 78 180 0 98 -33 151 -120 195 -72 36 -210
58 -300 49z"/>
<path d="M3703 4443 c-13 -9 -23 -21 -23 -28 0 -7 -7 -15 -15 -19 -8 -3 -15
-17 -15 -31 0 -53 54 -17 66 44 1 8 9 18 16 22 8 5 9 11 3 18 -6 6 -18 4 -32
-6z"/>
<path d="M3761 4320 c-8 -81 -9 -150 0 -155 5 -4 9 -18 10 -33 l1 -27 13 30
c20 46 29 105 16 105 -6 0 -11 -12 -11 -27 0 -58 -19 -5 -23 62 -1 39 -4 59
-6 45z"/>
<path d="M3790 4310 c0 -5 5 -10 10 -10 6 0 10 5 10 10 0 6 -4 10 -10 10 -5 0
-10 -4 -10 -10z"/>
<path d="M3759 3941 c-22 -38 -12 -104 16 -110 17 -3 18 -1 6 13 -9 11 -10 24
-4 43 5 16 7 40 4 55 l-6 28 -16 -29z"/>
<path d="M3680 3710 c0 -11 -4 -20 -10 -20 -13 0 -13 -27 0 -35 5 -3 16 8 25
24 19 38 19 51 0 51 -8 0 -15 -9 -15 -20z"/>
<path d="M3620 3710 c0 -5 5 -10 10 -10 6 0 10 5 10 10 0 6 -4 10 -10 10 -5 0
-10 -4 -10 -10z"/>
<path d="M3700 3619 c0 -5 5 -7 10 -4 6 3 10 8 10 11 0 2 -4 4 -10 4 -5 0 -10
-5 -10 -11z"/>
<path d="M5662 4455 c2 -11 11 -21 21 -23 12 -3 17 3 17 22 0 19 -5 24 -20 23
-15 -1 -20 -7 -18 -22z"/>
<path d="M5766 4383 c-6 -14 -5 -15 5 -6 7 7 10 15 7 18 -3 3 -9 -2 -12 -12z"/>
<path d="M5801 4334 c0 -11 3 -14 6 -6 3 7 2 16 -1 19 -3 4 -6 -2 -5 -13z"/>
<path d="M5768 4303 c-2 -5 -1 -24 2 -43 l6 -35 5 38 c5 34 -4 59 -13 40z"/>
<path d="M5635 4180 c-4 -6 -3 -16 3 -22 6 -6 12 -6 17 2 4 6 3 16 -3 22 -6 6
-12 6 -17 -2z"/>
<path d="M5737 4133 c-12 -11 -8 -42 7 -50 7 -4 15 -15 18 -23 3 -8 9 2 13 24
6 28 4 40 -6 47 -17 11 -24 11 -32 2z"/>
<path d="M5750 3965 c0 -8 5 -15 10 -15 6 0 10 7 10 15 0 8 -4 15 -10 15 -5 0
-10 -7 -10 -15z"/>
<path d="M5614 3926 c-3 -8 -12 -12 -21 -9 -8 3 6 -15 31 -41 25 -25 50 -46
55 -46 5 0 12 -8 14 -17 3 -11 5 -7 6 10 0 16 -3 26 -7 23 -5 -3 -19 17 -33
44 -25 52 -36 60 -45 36z"/>
<path d="M5711 3922 c0 -4 4 -16 8 -26 7 -19 8 -19 13 1 4 14 0 24 -8 27 -8 3
-14 2 -13 -2z"/>
<path d="M5600 3835 c0 -16 16 -20 24 -6 3 5 -1 11 -9 15 -9 3 -15 0 -15 -9z"/>
<path d="M5655 3720 c3 -5 8 -10 11 -10 2 0 4 5 4 10 0 6 -5 10 -11 10 -5 0
-7 -4 -4 -10z"/>
<path d="M5726 3682 c12 -69 58 -85 47 -16 -3 21 -13 35 -29 43 -25 11 -25 10
-18 -27z"/>
<path d="M4642 4134 c2 -11 11 -20 22 -22 13 -3 17 1 14 14 -2 11 -11 20 -22
22 -13 3 -17 -1 -14 -14z"/>
<path d="M4665 3847 c-19 -30 -17 -62 5 -62 19 0 37 62 23 76 -8 8 -16 4 -28
-14z"/>
<path d="M4850 3770 c0 -5 5 -10 10 -10 6 0 10 5 10 10 0 6 -4 10 -10 10 -5 0
-10 -4 -10 -10z"/>
<path d="M4619 3665 c-10 -45 10 -65 49 -50 13 5 12 9 -11 30 -26 25 -36 30
-38 20z"/>
<path d="M5135 2799 c-71 -7 -109 -25 -159 -75 -72 -72 -106 -178 -106 -334 0
-227 73 -369 211 -413 151 -49 288 9 353 149 31 70 49 257 28 292 -7 9 -41 12
-138 10 l-129 -3 -3 -71 -3 -71 41 -7 c31 -5 40 -11 40 -27 0 -28 -27 -77 -49
-89 -23 -12 -71 -13 -86 -2 -50 37 -65 89 -66 236 0 97 2 114 26 162 15 30 32
54 38 54 7 0 22 3 35 6 18 5 31 -2 61 -34 l39 -41 74 31 c40 16 77 34 82 39
23 21 -57 134 -118 166 -42 22 -99 29 -171 22z"/>
<path d="M6140 2791 c-135 -41 -210 -187 -210 -407 0 -213 71 -357 197 -404
65 -24 121 -25 194 -4 65 19 130 81 164 158 51 112 57 329 13 463 -28 85 -98
164 -165 187 -48 17 -149 20 -193 7z m127 -191 c40 -24 53 -65 60 -190 10
-170 -26 -260 -101 -260 -71 1 -96 60 -96 229 0 137 16 198 58 224 35 21 40
21 79 -3z"/>
<path d="M2562 2778 c-14 -14 -17 -764 -3 -786 5 -9 31 -12 92 -10 l84 3 3
158 c2 112 6 157 14 155 6 -2 39 -74 73 -158 l62 -155 88 -3 c49 -2 92 1 97 6
4 4 -21 79 -57 168 -35 87 -65 166 -65 175 0 9 11 24 24 32 13 9 36 41 51 72
24 49 27 64 23 123 -9 123 -74 193 -206 221 -72 15 -264 15 -280 -1z m263
-171 c18 -15 28 -36 32 -64 5 -37 2 -45 -26 -73 -22 -23 -38 -30 -58 -28 -28
3 -28 4 -31 82 -2 44 -1 85 2 93 8 20 52 15 81 -10z"/>
<path d="M3212 2781 c-8 -5 -11 -118 -12 -381 -1 -206 -1 -385 0 -398 l0 -22
183 2 182 3 3 74 c2 50 -1 77 -9 82 -7 4 -46 8 -87 8 -42 0 -80 5 -84 9 -5 5
-8 36 -6 68 l3 59 75 5 75 5 3 83 3 82 -75 0 c-58 0 -75 3 -80 16 -11 29 -6
121 7 132 7 6 49 12 92 14 l80 3 3 74 c2 53 -1 77 -10 82 -16 10 -330 10 -346
0z"/>
<path d="M3715 2778 c-3 -7 -4 -189 -3 -403 l3 -390 88 -3 87 -3 0 140 c0 77
3 146 6 155 5 12 21 16 68 16 88 0 98 10 94 95 l-3 70 -70 3 c-38 2 -75 8 -82
14 -13 11 -17 86 -7 126 6 21 11 22 96 22 l89 0 -3 83 -3 82 -178 3 c-137 2
-179 0 -182 -10z"/>
<path d="M4212 2781 c-18 -11 -12 -606 6 -662 20 -61 55 -103 107 -129 43 -21
64 -25 145 -25 83 0 102 3 145 26 53 27 88 69 106 128 17 55 25 637 9 656 -9
11 -32 15 -80 15 -109 0 -100 28 -101 -294 0 -318 -4 -345 -57 -360 -41 -12
-79 4 -92 40 -6 14 -10 150 -10 314 0 253 -2 289 -16 294 -23 9 -147 7 -162
-3z"/>
<path d="M5610 2783 c-1 -31 -1 -745 -1 -771 l1 -33 88 3 87 3 0 400 0 400
-87 3 c-49 1 -88 -1 -88 -5z"/>
<path d="M3347 1600 c-51 -9 -88 -37 -112 -86 -26 -52 -28 -223 -3 -269 30
-56 71 -85 125 -91 104 -13 161 44 170 171 l6 75 -72 0 -71 0 0 -34 c0 -26 5
-35 21 -39 19 -5 21 -11 15 -38 -7 -36 -20 -49 -52 -49 -41 0 -59 35 -62 125
-5 104 12 145 60 145 17 0 36 -7 43 -16 10 -14 17 -15 48 -5 47 16 52 25 31
56 -29 44 -86 65 -147 55z"/>
<path d="M4360 1599 c-82 -24 -120 -94 -120 -219 0 -95 17 -146 65 -192 54
-54 146 -49 206 11 33 32 38 44 44 104 10 96 8 98 -72 95 -61 -3 -68 -5 -71
-25 -2 -13 7 -31 24 -47 25 -22 26 -28 16 -51 -14 -30 -33 -39 -66 -31 -36 9
-49 53 -45 151 4 77 7 89 28 106 29 24 36 24 62 -2 20 -20 25 -20 60 -9 25 9
39 19 39 31 0 18 -63 79 -83 79 -7 0 -21 2 -32 4 -11 3 -36 0 -55 -5z"/>
<path d="M5694 1599 c-42 -12 -90 -68 -105 -121 -6 -24 -9 -79 -7 -123 7 -140
67 -211 170 -202 95 8 139 69 146 203 7 125 -34 219 -103 237 -49 13 -72 14
-101 6z m80 -104 c35 -36 34 -201 -1 -237 -27 -26 -65 -18 -81 17 -17 38 -15
170 3 205 17 34 53 40 79 15z"/>
<path d="M6845 1600 c-129 -27 -196 -197 -130 -335 32 -69 80 -105 148 -112
61 -6 80 8 75 54 -3 25 -8 29 -45 34 -74 10 -110 66 -101 161 7 65 50 112 103
112 38 0 51 19 41 61 -6 25 -41 35 -91 25z"/>
<path d="M2002 1586 c-34 -18 -62 -66 -62 -104 0 -48 22 -84 85 -137 38 -33
55 -55 55 -71 0 -31 -32 -47 -79 -39 -43 7 -52 -3 -44 -47 7 -38 74 -50 142
-27 35 12 81 80 81 120 0 35 -31 80 -88 128 -53 45 -65 68 -50 95 8 14 20 17
56 14 45 -3 47 -2 50 27 3 19 -2 33 -14 42 -23 17 -102 16 -132 -1z"/>
<path d="M2346 1586 c-14 -11 -116 -368 -116 -407 0 -15 7 -19 39 -19 33 0 40
4 51 29 13 33 39 41 97 32 29 -5 38 -12 43 -31 5 -21 12 -25 48 -28 33 -2 42
0 42 13 0 24 -101 399 -110 408 -12 13 -79 15 -94 3z m63 -190 c17 -91 16 -96
-20 -96 l-32 0 7 69 c11 120 27 129 45 27z"/>
<path d="M2625 1577 c-3 -12 -4 -110 -3 -217 l3 -195 39 -3 c24 -2 42 2 48 10
4 7 8 55 7 106 -1 87 3 113 17 100 3 -3 29 -53 57 -109 l52 -104 48 -3 c26 -2
47 1 47 5 0 4 1 100 2 213 1 199 0 204 -21 214 -14 6 -29 5 -46 -2 -24 -11
-25 -14 -25 -117 0 -58 -4 -105 -9 -105 -5 0 -26 35 -47 78 -65 135 -76 147
-123 149 -35 2 -42 -1 -46 -20z"/>
<path d="M3617 1538 c-8 -93 -9 -223 -1 -306 l6 -73 42 3 41 3 3 83 c2 57 6
82 14 80 7 -3 26 -40 44 -84 l31 -79 47 -3 c25 -2 46 1 46 7 0 5 -16 47 -35
92 l-35 83 26 33 c54 70 37 165 -34 199 -23 11 -67 19 -113 21 l-77 3 -5 -62z
m144 -28 c30 -16 27 -83 -5 -99 -34 -19 -46 -7 -46 48 0 62 10 72 51 51z"/>
<path d="M3987 1592 c-9 -2 -17 -7 -18 -10 -5 -43 -8 -347 -4 -379 l6 -43 95
0 95 0 -3 38 c-3 36 -4 37 -48 42 -44 5 -45 6 -48 44 -4 45 7 56 56 56 32 0
33 1 30 38 -3 35 -5 37 -43 42 -39 5 -40 6 -43 46 l-3 41 47 6 c25 2 50 11 55
18 10 16 2 50 -15 62 -10 7 -120 6 -159 -1z"/>
<path d="M4698 1579 c-48 -35 -68 -81 -75 -166 -9 -129 30 -226 104 -254 69
-26 143 1 184 67 19 31 24 56 27 130 5 110 -13 168 -65 214 -29 26 -41 30 -91
30 -41 -1 -64 -6 -84 -21z m127 -99 c18 -35 20 -167 3 -205 -16 -35 -54 -43
-81 -17 -28 29 -37 160 -14 215 14 31 21 37 46 37 24 0 34 -7 46 -30z"/>
<path d="M5046 1588 c-14 -8 -16 -37 -16 -196 0 -103 3 -197 6 -209 5 -19 13
-23 44 -23 34 0 38 3 44 31 3 17 6 56 6 85 0 30 4 54 9 54 5 0 25 -37 43 -82
l35 -83 46 -3 c26 -2 47 -2 47 0 0 2 -9 28 -21 58 -44 115 -45 122 -16 171 53
90 23 165 -78 197 -44 13 -125 13 -149 0z m138 -81 c37 -27 17 -91 -29 -99
-17 -3 -20 3 -23 41 -5 70 11 88 52 58z"/>
<path d="M5397 1593 c-4 -3 -7 -102 -7 -220 l0 -213 45 0 45 0 0 214 c0 213 0
214 -22 220 -30 8 -53 8 -61 -1z"/>
<path d="M6248 1588 c-17 -13 -24 -34 -58 -163 -21 -81 -44 -165 -59 -215 -16
-50 -16 -50 35 -50 41 0 46 3 55 29 9 25 17 30 52 33 58 6 71 1 84 -33 10 -25
16 -29 52 -29 22 0 42 3 44 8 3 4 -1 25 -8 47 -13 37 -82 292 -92 343 -3 12
-10 25 -16 29 -21 13 -73 13 -89 1z m62 -188 c14 -82 10 -100 -24 -100 -35 0
-39 11 -26 82 21 115 33 119 50 18z"/>
<path d="M6532 1228 c-29 -29 -3 -78 42 -78 26 0 49 45 36 69 -12 24 -58 29
-78 9z"/>
<path d="M7021 1222 c-22 -42 13 -82 59 -67 25 8 37 50 20 70 -18 21 -67 19
-79 -3z"/>
</g>
</svg>
