<svg xmlns="http://www.w3.org/2000/svg" viewBox="0 0 310.2 232"><defs><style>.a{fill:#a3a3a3;}.b{fill:#fff;}.c{fill:#a67c52;}.d{fill:#7f5432;}.e{fill:#603813;}.f{fill:#4d290f;}</style></defs><title>Icon</title><path class="a" d="M143,213.8s20.9,21.5,48.5,17.8,24.7-35.5,24.7-35.5-1.2-12.8-4.6-16.9-7.5-9.7-7.5-9.7,8.5-39.9-35.8-50-51.3,5.3-55.7,10-6.3,23.2-6.3,23.2-22.9,2.1-28.1,26.5,11.7,35.9,21,38.5S143,213.8,143,213.8Z"/><ellipse class="a" cx="71.7" cy="96" rx="30.7" ry="42.4" transform="translate(-28.5 30.3) rotate(-20)"/><ellipse class="a" cx="128.7" cy="49.1" rx="30.7" ry="42.4" transform="translate(-9 47) rotate(-20)"/><ellipse class="a" cx="211.7" cy="66.7" rx="43.7" ry="31.7" transform="translate(48.1 216.7) rotate(-60)"/><ellipse class="a" cx="248.1" cy="129.3" rx="42.9" ry="29.2" transform="translate(-10.4 236.3) rotate(-50)"/><path class="b" d="M82,91.6c2.4,3.7,3.4,10.3,12.7-3.2s7.8-26.6,18.9-22.7,16-.3,13.4,9.1-20.4,29.1-.9,30.8,56.5,6,57.6-2.6-1.5-31.3,5.1-33.8,17.2,3.1,24.8,7.5,12,2.2,11.3-.5-8-15.3-12.1-16.6-14-5.9-24-1.2S171.9,69.5,163.5,69s-34.4-1.1-39-4.8-18.1-10-21.2-7.9S89.4,67.5,86.8,74.4,82,91.6,82,91.6Z"/><path class="c" d="M189,177.6c.8-8.6.5-17.2.5-25.8,0-1.8.4-3.6-.1-5.5a2.1,2.1,0,0,0-1.4,1.1c-6.1,8.4-14,14.1-24.5,15.6a1.9,1.9,0,0,0-1.7,2.3c.9,9,1.3,17.9,2.6,26.8.7,4.1,3,6.3,7.2,6.7a66.1,66.1,0,0,0,8.9.1,21.4,21.4,0,0,0,9.5-2.5c3.2-1.6,4.5-6.3,2.1-8.9A11.5,11.5,0,0,1,189,177.6Z"/><path class="c" d="M192.3,184.7c2,2.2,3.2,4.8,2.5,8-.2,1-.9,1.8-.7,2.9,2.8.8,8.4-1.5,9.5-3.9a2.4,2.4,0,0,0-.2-2.7l-1.5-1.8a6.4,6.4,0,0,1-1.4-7.8,31,31,0,0,0,2.4-18c-.8-6.2-3-9.4-8.2-11.2-2.9-1.1-3.4-.7-3.4,2.5,0,8.9,0,17.8-.7,26.6A6.7,6.7,0,0,0,192.3,184.7Z"/><path class="c" d="M115.8,183c.8-.7.7-1.9.6-2.9-.9-9.3-.7-18.6-1.1-27.9-.1-2.2-.6-2.7-2.8-2a10.7,10.7,0,0,0-7.7,8.2c-1.3,6.5-1.6,13.1,1.3,19.3,2,4.1,1.7,7.6-1.7,10.8a3.4,3.4,0,0,0-.6.6,2.4,2.4,0,0,0-.1,2.9c2.3,2.8,5.5,3.5,9,4C110.7,190.7,112.2,186.6,115.8,183Z"/><path class="c" d="M142.3,162.2a46.2,46.2,0,0,1-19-8.9c-1.9-1.6-3.3-3.7-5.4-5.3a3.8,3.8,0,0,0-.6,2.6c.1,9.9-.2,19.8.8,29.7a6.4,6.4,0,0,1-1.9,5.4l-1.4,1.6a6.2,6.2,0,0,0,2.3,9.3c6.2,2.8,12.7,2.9,19.3,1.9,3.5-.6,5.6-2.6,6-6.2l.3-1.9c.8-8.2,1.5-16.4,2.3-24.6C145.3,163,145.1,162.8,142.3,162.2Z"/><path class="c" d="M162,188.6c-.7-7.6-1.3-15.2-1.9-22.8-.1-1.8-.9-2.5-2.6-2.3a27.6,27.6,0,0,1-7.6-.1c-2-.3-3,.6-3.1,2.7a14.9,14.9,0,0,1-.2,2.1c-1.2,8.2-.8,16.5-2.5,24.6-.4,1.8.3,2.6,2.1,2.5h7.2v.2h6.8c3-.1,3.2-.4,2.5-3.2A22,22,0,0,1,162,188.6Z"/><path class="c" d="M199.9,150.5a14.4,14.4,0,0,1,4.7,8.9c.4,1.9,1.3,2.6,3.2,2.4a33.2,33.2,0,0,0,7-1.3,20.7,20.7,0,0,0,10.7-6.6c5.5-6.7,6.3-14.4,3.2-22.3-2-5-5.4-8.4-11.3-8.5-3,0-5,1.2-6.1,4s-1.2,3.3-1.7,4.9c-1.6,4.3-3.1,8.5-6.3,11.9-1.7,1.8-3.9,2.9-5.8,4.7C198.2,149.8,199.2,149.9,199.9,150.5Z"/><path class="c" d="M177.6,63c-13.3-10.3-27.8-10.6-41.8-2.8s-19.9,18.4-23.7,32a73.8,73.8,0,0,0-.4,39.3,37.8,37.8,0,0,0,14.9,22.2c8.6,6.1,18.4,8.1,28.7,8.1H159l3.7-.3c11.9-1.7,20.1-8.6,26.3-18.4a67.8,67.8,0,0,0,8.2-21.5c1.6-7.4,2.7-14.9,1.6-22.4C196.7,84.3,189.5,72.3,177.6,63Zm-50.5,55.6c-5.3-.5-8.4-5-8.2-13.4a34.7,34.7,0,0,1,12.8-22.9c4.8-3.9,10-3,14.2,2.1s4.2,12.8,1.2,19.3a29.7,29.7,0,0,1-9.9,12A14.2,14.2,0,0,1,127.1,118.6Zm39.8,23.5c-2.5,4.4-7.1,6.5-14.1,6.6a15.9,15.9,0,0,1-9.2-2.4,11.6,11.6,0,0,1-5.4-9.3c-.3-4.6,2.4-8.1,7.4-9.6a27.2,27.2,0,0,1,16.9.8c6.7,2.4,6.7,9.6,4.4,13.9Zm11.2-44a4.9,4.9,0,1,1-9.8-.5,4.8,4.8,0,0,1,5.1-4.6c3,.1,4.8,2,4.7,5.1Z"/><path class="d" d="M129.2,199.8a32,32,0,0,1-8.3-1.1,37,37,0,0,0-7.4-1.3c-4.1-.3-7-1.3-9.3-3.2a5.3,5.3,0,0,1-2.1-3.5,4.7,4.7,0,0,1,1.6-3.3c2.6-2.6,3.1-5.4,1.4-8.9-2.6-5.7-3.1-11.9-1.5-19.8a11.9,11.9,0,0,1,9.2-9.8c2-.5,3.1-1.2,3.5-2.2s.2-2.2-.8-4a48.7,48.7,0,0,1-5-12.8,75.2,75.2,0,0,1-.5-32.4,60.3,60.3,0,0,1,8.7-22.2l.2-.3c.4-.6,1.2-1.6.2-2.7a2.8,2.8,0,0,0-2-.8l-1.2.2c-2.3.5-3.4,2.6-4,4.3s-1.7,5-2.5,7.4-1.2,3.6-1.9,5.4c-2,5.9-4.1,11.9-8.3,16.8a12.3,12.3,0,0,1-9.1,4.3,11.3,11.3,0,0,1-4.8-1.1c-3.3-1.5-5.1-4.3-5.7-8.9s.3-11.7,3.2-18.7c4-9.8,9.1-17.2,15.6-22.7a24.8,24.8,0,0,1,16.1-6.3,24.4,24.4,0,0,1,15.6,6,5.3,5.3,0,0,0,3.5,1.6,7.1,7.1,0,0,0,2.8-.8,40.7,40.7,0,0,1,18.8-4.8,27.4,27.4,0,0,1,5,.4,34.9,34.9,0,0,1,15.2,5.8,3.4,3.4,0,0,0,2,.8,3.5,3.5,0,0,0,2.3-1.2c5-4.5,9.8-6.9,15.1-7.6h2.9c7.5,0,14.1,3.4,20.4,10.6a61.6,61.6,0,0,1,13.8,27.6,25.7,25.7,0,0,1,.1,11.7,10.5,10.5,0,0,1-10.2,7.9h0a10.6,10.6,0,0,1-6.9-2.6c-4.7-4-7-9.3-9.3-15.3q-1.3-3.5-2.4-6.9a92.5,92.5,0,0,0-3.7-10c-1.1-2.5-2.6-3.7-4.5-3.7a9.3,9.3,0,0,0-2.2.4c-1.4.5-2.1,1.1-2.3,1.8s0,1.6.8,2.9a64.1,64.1,0,0,1,6.8,15.1,49.8,49.8,0,0,1,1.7,16.7,85.2,85.2,0,0,1-4.7,23.4,58.2,58.2,0,0,1-3.4,7.7,12.3,12.3,0,0,0-1.1,6.6c0,1.5.8,2.2,2.4,2.3h.2a10.2,10.2,0,0,0,6.2-2.3c4.6-3.3,7.7-8.2,9.7-15.2l.2-.5.3-1c1.1-3.4,2.3-6.3,5.7-6.9a12.3,12.3,0,0,1,2.7-.2,10.6,10.6,0,0,1,8.4,3.8c3.1,3.4,4.6,7.8,4.8,13.8.3,10.6-7.3,19.5-18.4,21.6l-4.8.7-1.2.2a2.4,2.4,0,0,0-2.4,2.7,28.9,28.9,0,0,1-3,15c-1.3,2.8.2,5,1.5,6.4s2.4,3.6,2.1,5-1.6,2.6-4,3.7a18.9,18.9,0,0,1-8.5,2.2H191a5.7,5.7,0,0,0-2.2.4,35.4,35.4,0,0,1-11.4,1.8,52.9,52.9,0,0,1-6.7-.5,9.8,9.8,0,0,1-4.1-1.4,8.5,8.5,0,0,0-4.7-1.2h-6.2c-4.1,0-7.8-.1-11.2-.4H144a4.5,4.5,0,0,0-2.9,1,8.1,8.1,0,0,1-4,1.6A36.8,36.8,0,0,1,129.2,199.8Zm-11.7-52.1a4.1,4.1,0,0,0-.7,2.6v7.4a216.2,216.2,0,0,0,.8,22.7,6,6,0,0,1-1.7,4.9l-1.5,1.7a6.8,6.8,0,0,0-1.1,5.7,6.5,6.5,0,0,0,3.6,4.3,29.6,29.6,0,0,0,12.4,2.6,47.6,47.6,0,0,0,7.2-.6c3.8-.6,6-2.9,6.4-6.6,0-.3.1-.7.1-1s.1-.6.2-1l.7-7.9c.5-5.6,1.1-11.1,1.6-16.7.3-3,0-3.4-3.1-4.1a44.2,44.2,0,0,1-18.8-8.8,29.5,29.5,0,0,1-2.5-2.5,26,26,0,0,0-2.9-2.8l-.4-.4Zm71.8-1.9a2.3,2.3,0,0,0-1.5,1.1l-.2.2c-6.6,9-14.5,14-24.2,15.4-1.1.1-2.3.8-2.1,2.9s.6,6.6.9,9.8c.4,5.6.9,11.3,1.8,17s3.2,6.7,7.5,7q3,.3,6,.3h3.1a22.3,22.3,0,0,0,9.4-2.5h.2a7.3,7.3,0,0,0,3.6-4.9,6.1,6.1,0,0,0-1.3-4.9,11.2,11.2,0,0,1-3-9.5c.7-7,.6-14.2.6-21.1-.1-1.6-.1-3.1-.1-4.7a8.6,8.6,0,0,1,.1-1.6,13.6,13.6,0,0,0-.2-4v-.5ZM114,149.4l-1.7.3a11.3,11.3,0,0,0-8,8.6c-1,5-2,12.5,1.4,19.6,2,4.2,1.4,7.3-1.7,10.2l-.6.7a2.9,2.9,0,0,0-.1,3.5c2.3,2.9,5.6,3.6,9.3,4.2h.9l-.3-.8c-1.8-4.7-.9-8.6,3-12.4a3.6,3.6,0,0,0,.7-3.1v-.2c-.6-6.2-.7-12.5-.8-18.6l-.3-9.3C115.7,150.8,115.6,149.4,114,149.4Zm76.8,3.6c.1,8.5,0,17.5-.7,26.3a7.4,7.4,0,0,0,1.8,5.7c2.2,2.4,3,4.9,2.4,7.6a5.4,5.4,0,0,1-.3,1,4.6,4.6,0,0,0-.4,2.1v.3h.4l1.4.2c3,0,7.5-2,8.7-4.4a3.1,3.1,0,0,0-.3-3.2c-.5-.6-1-1.3-1.6-1.9a5.8,5.8,0,0,1-1.2-7.2,30.7,30.7,0,0,0,2.4-18.2c-.8-6.5-3.2-9.8-8.5-11.7a7.7,7.7,0,0,0-2.3-.6c-1.8,0-1.8,2-1.8,3.6v.3Zm-37.9,42.9h7.3c1.5,0,2.5,0,3-.7s.4-1.6,0-3.1a19.7,19.7,0,0,1-.7-3.5c-.6-6.8-1.3-14.8-1.9-22.9-.1-1.8-1-2.8-2.6-2.8h-.6l-3.5.2a24.7,24.7,0,0,1-3.9-.3h-.8c-1.1,0-2.8.4-2.9,3.1a13.6,13.6,0,0,1-.2,2.1c-.5,3.5-.7,7.1-.9,10.6a94,94,0,0,1-1.6,13.9,2.3,2.3,0,0,0,2.6,3.2h6.7Zm50-52.2a21.5,21.5,0,0,1-2.8,2.3l-2.8,2.2-.2.3v.3a4.8,4.8,0,0,0,1.8,1.7l.7.4c2.4,2,3.8,4.8,4.5,8.6.4,1.9,1.4,2.8,3.2,2.8h.5a34,34,0,0,0,7.2-1.4,21.2,21.2,0,0,0,10.9-6.7c5.5-6.6,6.6-14.3,3.3-22.8-2.3-5.8-6.2-8.7-11.8-8.8h-.1a6.2,6.2,0,0,0-6.4,4.3,28.5,28.5,0,0,0-1.2,3.1l-.6,1.8c-1.5,4.1-3,8.4-6.1,11.7l-.2.2Zm-47.7,18.6h3.7l3.8-.3c11-1.6,19.7-7.7,26.6-18.7a66.4,66.4,0,0,0,8.3-21.7c1.4-6.7,2.7-14.6,1.6-22.5h0c-2.1-14.8-9.3-27-21.4-36.5-7.1-5.5-14.8-8.4-22.7-8.4a40.2,40.2,0,0,0-19.7,5.6c-11.7,6.6-19.7,17.4-23.9,32.2a74.9,74.9,0,0,0-.4,39.6c2.5,9.6,7.6,17.2,15.1,22.5s17.2,8.2,28.7,8.2ZM94.8,67.4a2,2,0,0,0-1.4.8l-.2.2-.6.7a44.2,44.2,0,0,0-9.2,20v.2a2.4,2.4,0,0,0,.9,2.7l.2.2h.3a3.5,3.5,0,0,0,1.8-2.2,1.4,1.4,0,0,1,.2-.6c.6-1.4,1.2-2.9,1.7-4.4a32.3,32.3,0,0,1,2.7-6.4c1.4-2.3,2.8-4.7,4.1-7.1l.6-1c.2-.4,1-1.7-.1-2.6A1.8,1.8,0,0,0,94.8,67.4Zm117.9-4.7a1.6,1.6,0,0,0,.1,2.2l2.1,2.5a45.2,45.2,0,0,1,5.5,7.5,1.3,1.3,0,0,0,2.1.6c1-.7.4-1.8.2-2.2-1.7-3.1-3.4-6.1-6-8.4l-.6-.7a4,4,0,0,0-3-1.7h-.3ZM101.6,60.3h-.4a5.9,5.9,0,0,0-4.7,4.5,1.6,1.6,0,0,0,.2,1.5,1.1,1.1,0,0,0,.9.5h0c1.3,0,3.6-2.3,4.3-3.1s1.2-2,1.2-2.2A1.4,1.4,0,0,0,101.6,60.3Z"/><path class="e" d="M114.5,52.7a24.1,24.1,0,0,1,15.3,5.9,5.4,5.4,0,0,0,3.8,1.7h0A48,48,0,0,0,120,72.9a4.1,4.1,0,0,0-.5-.9,3.3,3.3,0,0,0-2.4-1l-1.3.2c-2.6.6-3.7,2.8-4.4,4.6s-1.7,5-2.5,7.5-1.2,3.6-1.8,5.4c-2.1,5.8-4.1,11.7-8.3,16.5a11.5,11.5,0,0,1-8.7,4.2,12.3,12.3,0,0,1-4.6-1c-3.1-1.5-4.8-4.2-5.4-8.6s.3-11.5,3.2-18.4c4-9.7,9-17.1,15.4-22.5a24.4,24.4,0,0,1,15.8-6.2h0M97.7,67.4h0c1.7,0,4.5-3.2,4.6-3.3s1.3-2.1,1.3-2.5a2,2,0,0,0-2-1.8h-.4A6.5,6.5,0,0,0,96,64.8a2.2,2.2,0,0,0,.3,1.9,1.6,1.6,0,0,0,1.2.7h.2M84.4,92.8l.5-.3a3.9,3.9,0,0,0,2-2.5.8.8,0,0,0,.2-.4,41.3,41.3,0,0,0,1.7-4.5,29.9,29.9,0,0,1,2.7-6.3l4.1-7.1.6-1c.8-1.4.7-2.5-.2-3.3a2.1,2.1,0,0,0-1.2-.5,2.4,2.4,0,0,0-1.7.9l-.2.2-.7.8A43.6,43.6,0,0,0,82.9,89v.2a2.9,2.9,0,0,0,1.1,3.2l.5.4m113.3-40c7.3,0,13.8,3.4,20,10.4a59.8,59.8,0,0,1,13.7,27.4,24.4,24.4,0,0,1,.1,11.4,9.9,9.9,0,0,1-9.7,7.6,10.2,10.2,0,0,1-6.6-2.5c-4.6-3.9-6.9-9.2-9.2-15.1-.8-2.2-1.6-4.6-2.3-6.9a92.5,92.5,0,0,0-3.7-10c-1.3-2.7-2.9-4-5-4a6.8,6.8,0,0,0-2.3.5c-1.1.4-2.3.9-2.7,2a2,2,0,0,0-.1.7,61.2,61.2,0,0,0-11.8-12.1l-.7-.5a4.1,4.1,0,0,0,2.6-1.3c4.9-4.5,9.6-6.9,14.8-7.5h2.9m24,23.5a1.7,1.7,0,0,0,1.1-.4c.6-.4,1.2-1.3.3-2.8-1.7-3.2-3.4-6.2-6-8.6l-.6-.6a4.3,4.3,0,0,0-3.4-1.9h-.5l-.3.4a2.1,2.1,0,0,0,.1,2.8l2.1,2.6a38.3,38.3,0,0,1,5.4,7.3,2,2,0,0,0,1.8,1.2m-31.5,66.4a20.1,20.1,0,0,0-.1,2.4l-.9.2-.9.4,1.4-2.1.5-.9m-73.2,3,.6.9-.5.8a4.7,4.7,0,0,0-.8,2.9v1.9c0-1-.1-3-2-3.3a4,4,0,0,0,2.4-2,2.7,2.7,0,0,0,.3-1.2m73.6,2.3a3.6,3.6,0,0,0,1.2.8,1.8,1.8,0,0,0-1.2,1.3,14.7,14.7,0,0,0,0-2.1m5.9.4.3.6a3.8,3.8,0,0,0,1.9,1.9l.7.4c2.3,1.9,3.6,4.6,4.3,8.3a4,4,0,0,0,1.7,2.8,2.2,2.2,0,0,0-1.2,1.3l-.3-2.4c-.9-6.7-3.3-10.1-8.8-12.1l-.9-.3,2.3-.5M145,162l3.3.4a3.2,3.2,0,0,0-2.2,2A2.5,2.5,0,0,0,145,162m16.8.6a2.7,2.7,0,0,0-1,1.7,3.1,3.1,0,0,0-1.3-1.6h2.3m-17.4,19.9c-.1,1.6-.2,3.3-.4,5l.4-5M116.3,184l-.8,1-.7.8a11.9,11.9,0,0,1,1.5-1.8m-3.3,9.3a6.6,6.6,0,0,0,3.2,3.9l-2-.2-.6-1.4a11.2,11.2,0,0,1-.6-2.3m30,.9a3.7,3.7,0,0,0,.5,1.1l.6.5H144a5.2,5.2,0,0,0-1.8.3,6.4,6.4,0,0,0,.8-1.9m21,.3a9.5,9.5,0,0,0,1.1,2l-2.3-.4a1.6,1.6,0,0,0,.8-.6,1.3,1.3,0,0,0,.4-1m29.1.4v1.5l.6.2,1.5.2-2.8.2H191a8.4,8.4,0,0,0,2.1-2.1M114.5,51.7a25.3,25.3,0,0,0-16.4,6.4C90.8,64.4,86,72.3,82.4,81c-2.5,6-4.1,12.3-3.3,19,.6,3.9,2,7.5,6,9.3a12.5,12.5,0,0,0,5,1.1,12.8,12.8,0,0,0,9.5-4.5C103.8,101,105.9,95,108,89c1.5-4.3,2.8-8.6,4.4-12.8.6-1.8,1.6-3.6,3.7-4.1h1a2,2,0,0,1,1.6.7c.8.9,0,1.7-.4,2.3a60,60,0,0,0-8.8,22.4A76.3,76.3,0,0,0,110,130a51.7,51.7,0,0,0,5.1,13c1.7,3.1,1,4.5-2.4,5.4a12.5,12.5,0,0,0-9.6,10.2c-1.4,6.9-1.5,13.7,1.6,20.2,1.5,3.1,1.2,5.7-1.4,8.3s-2.2,5.2.6,7.5,6.1,3,9.6,3.3a37.3,37.3,0,0,1,7.3,1.3,34.6,34.6,0,0,0,8.4,1.1,35.7,35.7,0,0,0,8-.9,9.1,9.1,0,0,0,4.2-1.7,3.8,3.8,0,0,1,2.6-.9h.5c3.7.3,7.5.4,11.2.4h6.2a7.6,7.6,0,0,1,4.4,1.1,9.2,9.2,0,0,0,4.3,1.5,51.9,51.9,0,0,0,6.8.5,35.7,35.7,0,0,0,11.6-1.9,6.4,6.4,0,0,1,2-.3h1.5a20.8,20.8,0,0,0,8.8-2.2c4.9-2.4,5.6-5.4,1.9-9.6-1.5-1.7-2.4-3.5-1.3-5.7a30.2,30.2,0,0,0,3-15.3,2,2,0,0,1,1.9-2.2c2-.3,4.1-.5,6.1-.9,11.4-2.2,19.1-11.2,18.8-22.1-.2-5.2-1.3-10.1-4.9-14.2a11.4,11.4,0,0,0-8.8-3.9,12.3,12.3,0,0,0-2.7.2c-3.9.7-5.1,4-6.2,7.2a8.3,8.3,0,0,0-.4,1.5c-1.7,6-4.4,11.3-9.6,15a9.8,9.8,0,0,1-5.9,2.2H193c-1.2,0-1.9-.5-1.9-1.8a11.4,11.4,0,0,1,1.1-6.3,78.3,78.3,0,0,0,3.4-7.9,84.6,84.6,0,0,0,4.7-23.5,50.4,50.4,0,0,0-1.7-16.8,60.3,60.3,0,0,0-6.9-15.3c-1.4-2.2-1-3.1,1.3-3.9a7.9,7.9,0,0,1,2-.4c1.7,0,3,1.1,4.1,3.4,2.5,5.4,3.8,11.3,6,16.8s4.6,11.4,9.4,15.5a11.2,11.2,0,0,0,7.3,2.8,10.8,10.8,0,0,0,10.6-8.3,25.2,25.2,0,0,0,0-11.9,62.4,62.4,0,0,0-13.9-27.9c-5.6-6.3-12.3-10.7-20.8-10.7a16.2,16.2,0,0,0-3,.2c-6,.7-11,3.7-15.3,7.7a3.7,3.7,0,0,1-2,1,3.2,3.2,0,0,1-1.8-.7,33.8,33.8,0,0,0-15.3-5.9,29.2,29.2,0,0,0-5.1-.4,42.1,42.1,0,0,0-19,4.8,5.9,5.9,0,0,1-2.6.8,5.3,5.3,0,0,1-3.2-1.4,24.6,24.6,0,0,0-15.9-6.2Zm40.4,110.1c-10.2,0-19.9-2.1-28.4-8.1a37.8,37.8,0,0,1-14.9-22.2,74.9,74.9,0,0,1,.3-39.3c3.9-13.6,11.2-24.9,23.8-31.9a38.6,38.6,0,0,1,19.4-5.6c7.6,0,15.2,2.7,22.4,8.3,11.8,9.3,19.1,21.3,21.2,36.2h0c1.1,7.5,0,15-1.6,22.3a65.4,65.4,0,0,1-8.3,21.6c-6.1,9.8-14.3,16.7-26.2,18.4l-3.7.3h-4ZM97.7,66.4h0c-.8-.1-.9-.7-.7-1.4a5.3,5.3,0,0,1,4.3-4.1h.3a1,1,0,0,1,1,.9c.1.9-3.8,4.7-4.9,4.7Zm124,8.9a1.1,1.1,0,0,1-.9-.7c-2-3.7-5-6.7-7.6-10a1.2,1.2,0,0,1-.1-1.6c1.6,0,2.3,1.4,3.3,2.2,2.6,2.4,4.2,5.3,5.9,8.4.2.4.5,1.1-.1,1.5a.6.6,0,0,1-.5.2ZM84.5,91.6c-1.1-.7-.8-1.6-.6-2.4A42.8,42.8,0,0,1,93,69.4l.5-.6c.4-.4.8-.9,1.3-.9a.9.9,0,0,1,.6.3c.7.6.3,1.3-.1,2-1.5,2.7-3.1,5.4-4.7,8.1s-2.8,7.3-4.4,10.8c-.4,1-.6,2-1.7,2.5Zm122.9,70.2c-1.6,0-2.4-.7-2.7-2.4a14.4,14.4,0,0,0-4.7-8.9c-.7-.6-1.7-.8-2.3-1.9,1.8-1.8,4-2.9,5.7-4.7h0c3.2-3.4,4.8-7.6,6.3-11.9.6-1.6,1.1-3.3,1.7-4.9a5.8,5.8,0,0,1,6-4h.1c5.9.1,9.4,3.4,11.3,8.4,3.1,8,2.3,15.7-3.2,22.4a21.1,21.1,0,0,1-10.6,6.6,34.2,34.2,0,0,1-7.1,1.3ZM177.5,199l-5.9-.3c-4.2-.3-6.5-2.5-7.2-6.6-1.3-8.9-1.7-17.9-2.6-26.8a1.9,1.9,0,0,1,1.7-2.3c10.5-1.5,18.4-7.2,24.5-15.6a2.1,2.1,0,0,1,1.4-1.1c.5,1.9.1,3.7.1,5.5.1,8.6.3,17.2-.5,25.8a11.8,11.8,0,0,0,3.1,9.9c2.4,2.6,1.2,7.3-2.1,8.9h0a22.8,22.8,0,0,1-9.5,2.5Zm-48.2.1a29.3,29.3,0,0,1-12.2-2.5,6.2,6.2,0,0,1-2.3-9.3l1.4-1.6a6.4,6.4,0,0,0,1.9-5.4c-1-9.9-.7-19.8-.8-29.7a3.8,3.8,0,0,1,.6-2.6c2.1,1.7,3.5,3.7,5.4,5.3a44.9,44.9,0,0,0,19,8.9c2.8.6,3,.8,2.7,3.6-.8,8.2-1.5,16.4-2.3,24.6l-.3,1.9a6.5,6.5,0,0,1-6,6.2,56.7,56.7,0,0,1-7.1.6Zm66.1-3.3-1.3-.2c-.1-1.1.5-1.9.7-2.9.7-3.2-.5-5.8-2.5-8a6.7,6.7,0,0,1-1.7-5.4c.7-8.8.8-17.7.7-26.6h0c0-2.2.2-3.1,1.3-3.1a5.7,5.7,0,0,1,2.1.6c5.2,1.8,7.4,5,8.2,11.2a31.8,31.8,0,0,1-2.3,18,6.3,6.3,0,0,0,1.3,7.8l1.5,1.8a2.4,2.4,0,0,1,.2,2.7c-1,2.1-5.2,4.1-8.2,4.1Zm-82.7.2c-3.5-.5-6.7-1.2-9-4a2.4,2.4,0,0,1,.1-2.9l.5-.6c3.5-3.2,3.8-6.7,1.8-10.8-2.9-6.2-2.6-12.8-1.3-19.3a10.7,10.7,0,0,1,7.7-8.2l1.5-.3c.9,0,1.2.7,1.3,2.3.4,9.3.2,18.6,1.1,27.9.1,1,.2,2.2-.6,2.9-3.6,3.6-5.1,7.7-3.1,13Zm33.5-.7c-1.8,0-2.5-.8-2.1-2.6,1.7-8,1.3-16.3,2.5-24.5a15,15,0,0,0,.2-2.2c0-1.7.8-2.6,2.4-2.6h.7a26,26,0,0,0,4,.3l3.6-.2h.5c1.4,0,2,.8,2.1,2.4.6,7.6,1.2,15.2,1.9,22.8a20.9,20.9,0,0,0,.7,3.6c.7,2.9.5,3.2-2.5,3.2h-14Z"/><path class="d" d="M128.6,118.2h-1.4c-5.3-.5-8-5-7.8-12.9a33.9,33.9,0,0,1,12.7-22.5,8.8,8.8,0,0,1,5.7-2.3c2.7,0,5.4,1.5,7.7,4.4,4.3,5.1,4.6,11.1,1.2,18.7a30.4,30.4,0,0,1-9.8,11.8,14,14,0,0,1-8.3,2.9Zm5.5-23.8a2.1,2.1,0,0,0-2.1,2.2c0,1,.3,2.2,2.3,2.5h.2a2.3,2.3,0,0,0,1.9-2.4,2.1,2.1,0,0,0-2.2-2.2h-.1Z"/><path class="e" d="M137.8,80.9c2.6,0,5.1,1.4,7.3,4.2,4.2,5,4.6,10.7,1.1,18.2a27.8,27.8,0,0,1-9.6,11.6,13.2,13.2,0,0,1-8,2.8h-1.4c-6.3-.6-7.5-7.1-7.3-12.4a32.9,32.9,0,0,1,12.5-22.1,8.2,8.2,0,0,1,5.4-2.2m-3.5,18.7h.4a2.9,2.9,0,0,0,2.2-2.9,2.6,2.6,0,0,0-2.7-2.7h-.1a2.6,2.6,0,0,0-2.6,2.7c-.1,1.6.9,2.7,2.7,3h.1m3.5-19.7a9.9,9.9,0,0,0-6.1,2.4,34.7,34.7,0,0,0-12.8,22.9c-.2,8.4,2.9,12.9,8.2,13.4h1.5a14.5,14.5,0,0,0,8.6-3,29.7,29.7,0,0,0,9.9-12c3-6.6,3.9-13.1-1.2-19.3-2.4-2.9-5.2-4.5-8.1-4.5Zm-3.5,18.7a1.8,1.8,0,0,1-1.8-2c.1-.9.5-1.7,1.6-1.7h.1c1.1,0,1.6.7,1.7,1.8s-.7,1.6-1.6,1.9Z"/><path class="d" d="M152.1,148.2a15.9,15.9,0,0,1-8.2-2.3,11.2,11.2,0,0,1-5.1-8.9c-.3-4.4,2.2-7.7,7-9.1a27.5,27.5,0,0,1,7-1,28,28,0,0,1,9.6,1.8,8,8,0,0,1,4.9,4.6,11.1,11.1,0,0,1-.8,8.5c-2.4,4.3-6.8,6.4-13.7,6.4Z"/><path class="e" d="M152.8,127.4a26.9,26.9,0,0,1,9.4,1.8,7.2,7.2,0,0,1,4.6,4.2,10.3,10.3,0,0,1-.8,8.2c-2.2,4.1-6.5,6.1-13.2,6.1h-.7a14.8,14.8,0,0,1-7.9-2.3,10.4,10.4,0,0,1-4.9-8.5c-.3-4.2,2.1-7.2,6.6-8.5a23.5,23.5,0,0,1,6.9-1m0-1a25.5,25.5,0,0,0-7.2,1c-5,1.5-7.6,5-7.3,9.6a11.6,11.6,0,0,0,5.4,9.3,15.5,15.5,0,0,0,8.4,2.4h.7c7.1,0,11.7-2.2,14.1-6.6s2.3-11.5-4.3-13.9a28.7,28.7,0,0,0-9.8-1.8Z"/><path class="f" d="M173.4,93a4.8,4.8,0,0,0-5.1,4.6,5,5,0,0,0,4.8,5.4,4.9,4.9,0,0,0,5-4.9A4.6,4.6,0,0,0,173.4,93Zm-2,5.4a1.8,1.8,0,0,1-1.8-1.8c0-1.1.5-1.8,1.7-1.8a1.5,1.5,0,0,1,1.6,1.6A1.6,1.6,0,0,1,171.4,98.4Z"/><path class="f" d="M127.3,98.2a5,5,0,0,0,5.1,4.9,4.9,4.9,0,0,0,4.8-5.4,4.8,4.8,0,0,0-5.1-4.5A4.5,4.5,0,0,0,127.3,98.2Zm5.2-1.7a1.6,1.6,0,0,1,1.7-1.6,1.5,1.5,0,0,1,1.6,1.8c0,1.2-.7,1.7-1.8,1.8S132.5,97.6,132.5,96.5Z"/><polygon class="e" points="0 68.7 27.9 78.4 154.2 0 0 68.7"/><polygon class="e" points="310.2 68.7 282.4 78.4 156 0 310.2 68.7"/></svg>