<svg xmlns="http://www.w3.org/2000/svg" viewBox="0 0 340.7 84.5"><defs><style>.a{fill:#a67c52;}.b{fill:#f0f9fc;}</style></defs><title>Logotipo Neg</title><path class="a" d="M7.4,78.4a14.7,14.7,0,0,1-4.9-1.9l2.7-6.2A16.8,16.8,0,0,0,9.3,72a16.5,16.5,0,0,0,4.3.6,7.7,7.7,0,0,0,2.5-.3,1,1,0,0,0,.7-1c0-.5-.3-.9-1-1.2a14.6,14.6,0,0,0-3.2-.9,30.8,30.8,0,0,1-4.9-1.3,8.6,8.6,0,0,1-3.4-2.3,6.5,6.5,0,0,1-1.4-4.3A7.3,7.3,0,0,1,4.2,57a8.5,8.5,0,0,1,4-3.1,17.5,17.5,0,0,1,6.4-1.1,27.6,27.6,0,0,1,5.1.5A16.2,16.2,0,0,1,24.1,55l-2.5,6.1a16.2,16.2,0,0,0-7-1.8q-3.3,0-3.3,1.5c0,.5.3.9,1,1.2l3.2.8A33.5,33.5,0,0,1,20.3,64a10.1,10.1,0,0,1,3.5,2.3,6.5,6.5,0,0,1,1.4,4.3,7.1,7.1,0,0,1-1.3,4.3,9.2,9.2,0,0,1-4,3.1,15.6,15.6,0,0,1-6.4,1.1A24.8,24.8,0,0,1,7.4,78.4Z" transform="translate(-2.5 -1.4)"/><path class="a" d="M44.2,60.8c1.9,1.6,2.8,4,2.8,7.2V78.6H39.4V76c-.9,1.9-2.8,2.9-5.6,2.9a9.8,9.8,0,0,1-4-.8,5.7,5.7,0,0,1-2.4-2.2,5.6,5.6,0,0,1-.9-3.1,5.1,5.1,0,0,1,2.2-4.4c1.5-1,3.8-1.5,6.8-1.5h3.3c-.3-1.6-1.5-2.4-3.7-2.4a8.6,8.6,0,0,0-2.7.5A6.6,6.6,0,0,0,30,66.1l-2.5-5.4a13.4,13.4,0,0,1,4-1.6,19.7,19.7,0,0,1,4.8-.6C39.8,58.5,42.4,59.3,44.2,60.8ZM37.8,73.5a2.2,2.2,0,0,0,1-1.4V70.8h-2c-1.6,0-2.5.5-2.5,1.6a1.4,1.4,0,0,0,.6,1.2,2,2,0,0,0,1.4.4A2,2,0,0,0,37.8,73.5Z" transform="translate(-2.5 -1.4)"/><path class="a" d="M70,60.7c1.5,1.5,2.2,3.7,2.2,6.6V78.6H64.1V68.7c0-2.2-.8-3.4-2.4-3.4a2.9,2.9,0,0,0-2.2,1,4.1,4.1,0,0,0-.9,3v9.3H50.5V58.9h7.7v1.9a7.7,7.7,0,0,1,2.7-1.7,8.8,8.8,0,0,1,3.3-.6A7.8,7.8,0,0,1,70,60.7Z" transform="translate(-2.5 -1.4)"/><path class="a" d="M103.5,65.3h7.4V75.9a15.5,15.5,0,0,1-5.2,2.4,19.8,19.8,0,0,1-5.8.8,16,16,0,0,1-7.3-1.6,13.3,13.3,0,0,1-5-4.7,13.9,13.9,0,0,1,0-13.7,12,12,0,0,1,5.1-4.6,15,15,0,0,1,7.4-1.7,17.3,17.3,0,0,1,6.6,1.2,12.8,12.8,0,0,1,4.9,3.6l-5.5,4.8a7.1,7.1,0,0,0-5.6-2.7A6.1,6.1,0,0,0,96,61.3,6.5,6.5,0,0,0,94.4,66,6.2,6.2,0,0,0,96,70.5a5.7,5.7,0,0,0,4.4,1.8,8.2,8.2,0,0,0,3.1-.7Z" transform="translate(-2.5 -1.4)"/><path class="a" d="M128.4,58.5v7.2h-1.8q-4.2,0-4.2,4.2v8.8h-8.2V58.9H122V61C123.4,59.3,125.6,58.5,128.4,58.5Z" transform="translate(-2.5 -1.4)"/><path class="a" d="M151.3,70.6H137.6a3.5,3.5,0,0,0,1.5,1.7,4.9,4.9,0,0,0,2.5.6,6.9,6.9,0,0,0,2.2-.3,7.7,7.7,0,0,0,1.9-1.1l4.3,4.2c-2,2.2-4.8,3.2-8.6,3.2a13.9,13.9,0,0,1-6.3-1.3,10.1,10.1,0,0,1-4.2-3.7,9.3,9.3,0,0,1-1.5-5.2,9.6,9.6,0,0,1,1.5-5.3,10.7,10.7,0,0,1,4-3.6,12,12,0,0,1,5.7-1.3,12.6,12.6,0,0,1,5.5,1.2,9.4,9.4,0,0,1,3.9,3.5,9.8,9.8,0,0,1,1.4,5.5C151.4,68.8,151.4,69.4,151.3,70.6Zm-12.7-5.9a3.3,3.3,0,0,0-1.1,2h6.3a3.5,3.5,0,0,0-1-2,3.8,3.8,0,0,0-2.1-.7A3.3,3.3,0,0,0,138.6,64.7Z" transform="translate(-2.5 -1.4)"/><path class="a" d="M176,58.9V74.6c0,3.8-1,6.6-3.1,8.5s-5.1,2.8-8.9,2.8a23.8,23.8,0,0,1-5.5-.6,20.1,20.1,0,0,1-4.4-1.8l2.8-5.6a7.1,7.1,0,0,0,2.9,1.4,10.4,10.4,0,0,0,3.4.5,4.9,4.9,0,0,0,3.5-1,3.9,3.9,0,0,0,1.2-3.1v-.3a7.1,7.1,0,0,1-5.5,2.1,9.7,9.7,0,0,1-4.7-1.2,10,10,0,0,1-3.5-3.3,10.6,10.6,0,0,1-1.3-5,9,9,0,0,1,4.8-8.3,9.7,9.7,0,0,1,4.7-1.2c2.7,0,4.6.9,5.8,2.6V58.9Zm-9,11.4a3.2,3.2,0,0,0,.9-2.3,3,3,0,0,0-.9-2.3,3.6,3.6,0,0,0-2.4-.9,3.7,3.7,0,0,0-2.5.9,3,3,0,0,0-.9,2.3,2.9,2.9,0,0,0,1,2.3,3.6,3.6,0,0,0,2.4.8A4.1,4.1,0,0,0,167,70.3Z" transform="translate(-2.5 -1.4)"/><path class="a" d="M184.1,77.6A11,11,0,0,1,180,74a10.1,10.1,0,0,1,0-10.6,11,11,0,0,1,4.1-3.6,14,14,0,0,1,11.8,0,10.3,10.3,0,0,1,4.1,3.6A10.7,10.7,0,0,1,200,74a10.3,10.3,0,0,1-4.1,3.6,14,14,0,0,1-11.8,0Zm8.2-6a5.1,5.1,0,0,0,0-5.8,3.1,3.1,0,0,0-4.6,0,5.1,5.1,0,0,0,0,5.8,3.1,3.1,0,0,0,4.6,0Z" transform="translate(-2.5 -1.4)"/><path class="a" d="M218.1,58.5v7.2h-1.8q-4.2,0-4.2,4.2v8.8H204V58.9h7.7V61C213.2,59.3,215.3,58.5,218.1,58.5Z" transform="translate(-2.5 -1.4)"/><path class="a" d="M220.9,56.1a3.8,3.8,0,0,1-1.3-3,3.5,3.5,0,0,1,1.3-2.9,6.1,6.1,0,0,1,7.1-.1,3.7,3.7,0,0,1,1.4,2.9,4.1,4.1,0,0,1-1.4,3.1,4.8,4.8,0,0,1-3.5,1.2A5.2,5.2,0,0,1,220.9,56.1Zm-.5,2.8h8.1V78.6h-8.1Z" transform="translate(-2.5 -1.4)"/><path class="a" d="M236.7,77.6a10.3,10.3,0,0,1-4.1-3.6,10.1,10.1,0,0,1,0-10.6,10.3,10.3,0,0,1,4.1-3.6,12.5,12.5,0,0,1,5.9-1.3,12.8,12.8,0,0,1,5.9,1.3,10,10,0,0,1,4,3.6,10.1,10.1,0,0,1,0,10.6,10,10,0,0,1-4,3.6,12.8,12.8,0,0,1-5.9,1.3A12.5,12.5,0,0,1,236.7,77.6Zm8.2-6a5.1,5.1,0,0,0,0-5.8,3.3,3.3,0,0,0-2.3-1,3.3,3.3,0,0,0-2.4,1,5.1,5.1,0,0,0,0,5.8,3.3,3.3,0,0,0,2.4,1A3.3,3.3,0,0,0,244.9,71.6Z" transform="translate(-2.5 -1.4)"/><path class="a" d="M284.8,74.2h-9.6l-1.7,4.4h-8.6l11-25.2h8.3l11.1,25.2h-8.8ZM282.4,68,280,61.7,277.5,68Z" transform="translate(-2.5 -1.4)"/><path class="a" d="M297.7,77.6a4.5,4.5,0,0,1-1.3-3.4,4.4,4.4,0,0,1,1.3-3.3,5.1,5.1,0,0,1,3.4-1.3,4.9,4.9,0,0,1,3.4,1.3,4.5,4.5,0,0,1,1.4,3.3,4.6,4.6,0,0,1-1.4,3.4,4.5,4.5,0,0,1-3.4,1.3A4.7,4.7,0,0,1,297.7,77.6Z" transform="translate(-2.5 -1.4)"/><path class="a" d="M313.8,77.5a12.9,12.9,0,0,1-5.1-4.7,13.9,13.9,0,0,1,0-13.7,12,12,0,0,1,5.1-4.6,14.2,14.2,0,0,1,7.2-1.7,15.1,15.1,0,0,1,6.5,1.3,12.4,12.4,0,0,1,4.8,3.7l-5.4,4.8a6.8,6.8,0,0,0-5.5-2.9,5.4,5.4,0,0,0-4.3,1.7,6.1,6.1,0,0,0-1.6,4.6,6.1,6.1,0,0,0,1.6,4.5,5.5,5.5,0,0,0,4.3,1.8,6.9,6.9,0,0,0,5.5-3l5.4,4.8a12.4,12.4,0,0,1-4.8,3.7,15.1,15.1,0,0,1-6.5,1.3A15.3,15.3,0,0,1,313.8,77.5Z" transform="translate(-2.5 -1.4)"/><path class="a" d="M335.1,77.6a4.6,4.6,0,0,1-1.4-3.4,4.5,4.5,0,0,1,1.4-3.3,5.1,5.1,0,0,1,6.8,0,4.4,4.4,0,0,1,1.3,3.3,4.8,4.8,0,0,1-8.1,3.4Z" transform="translate(-2.5 -1.4)"/><path class="b" d="M88.4,32.4h-3v8.4H74V7.2H90.2a20.2,20.2,0,0,1,8.1,1.5,12.6,12.6,0,0,1,5.4,4.5,12.2,12.2,0,0,1,1.8,6.7,11.8,11.8,0,0,1-1.6,6.3,11.3,11.3,0,0,1-4.7,4.2l7.1,10.4H94.2ZM93,17a5.2,5.2,0,0,0-3.5-1.1H85.4v7.9h4.1a5.2,5.2,0,0,0,3.5-1,4,4,0,0,0,1.1-2.9A3.8,3.8,0,0,0,93,17Z" transform="translate(-2.5 -1.4)"/><path class="b" d="M137.3,30.2H119a4.8,4.8,0,0,0,1.9,2.3,7.1,7.1,0,0,0,3.4.8,7.9,7.9,0,0,0,2.9-.5,12.1,12.1,0,0,0,2.6-1.5l5.6,5.8q-3.7,4.2-11.4,4.2a18.6,18.6,0,0,1-8.4-1.8,13.8,13.8,0,0,1-5.6-4.8,13.3,13.3,0,0,1-1.9-7.1,12.9,12.9,0,0,1,1.9-7,13.3,13.3,0,0,1,5.4-4.8,15.5,15.5,0,0,1,7.6-1.7,17.2,17.2,0,0,1,7.2,1.5,13.4,13.4,0,0,1,5.3,4.7,13.5,13.5,0,0,1,1.9,7.3C137.4,27.8,137.4,28.7,137.3,30.2Zm-17-7.8a4.2,4.2,0,0,0-1.5,2.6h8.5a4,4,0,0,0-1.5-2.6,4,4,0,0,0-2.7-.9A4.1,4.1,0,0,0,120.3,22.4Z" transform="translate(-2.5 -1.4)"/><path class="b" d="M152.5,16h5.7v7.9h-5.3V40.8H142V23.9h-3.6V16H142v-.2a10.6,10.6,0,0,1,3.1-8.1c2-2,4.9-3,8.6-3a21.9,21.9,0,0,1,3.6.3,16.3,16.3,0,0,1,2.9,1l-2.6,7.5a6.1,6.1,0,0,0-2.5-.6,2.6,2.6,0,0,0-1.9.8,3.4,3.4,0,0,0-.7,2.2Z" transform="translate(-2.5 -1.4)"/><path class="b" d="M190,14.5V40.8H179.6V38.3a8.3,8.3,0,0,1-3.3,2.2,11.5,11.5,0,0,1-4.1.8,10.5,10.5,0,0,1-8-3.1c-2-2-3-5.1-3-9.2V14.5H172V27.2a6.2,6.2,0,0,0,.9,3.8,2.9,2.9,0,0,0,2.5,1.2,3.5,3.5,0,0,0,2.7-1.3,6.4,6.4,0,0,0,1-4V14.5Z" transform="translate(-2.5 -1.4)"/><path class="b" d="M224.1,14.5V35.6c0,5-1.4,8.7-4.2,11.2s-6.7,3.8-11.8,3.8a33.3,33.3,0,0,1-7.3-.8,18.1,18.1,0,0,1-5.8-2.5l3.6-7.4a11.8,11.8,0,0,0,3.9,1.9,15,15,0,0,0,4.5.7c2.2,0,3.8-.4,4.8-1.4a5.2,5.2,0,0,0,1.4-4v-.5c-1.6,1.8-4,2.8-7.2,2.8a14,14,0,0,1-6.3-1.6,11.7,11.7,0,0,1-4.6-4.5,13,13,0,0,1-1.7-6.6,13,13,0,0,1,1.7-6.6,12.4,12.4,0,0,1,4.6-4.5,13.9,13.9,0,0,1,6.3-1.5c3.6,0,6.2,1.1,7.8,3.4v-3Zm-12,15.2a3.9,3.9,0,0,0,1.2-3,3.8,3.8,0,0,0-1.2-3,4.5,4.5,0,0,0-3.2-1.2,4.8,4.8,0,0,0-3.3,1.2,3.8,3.8,0,0,0-1.2,3,3.7,3.7,0,0,0,1.3,3,4.4,4.4,0,0,0,3.2,1.2A4.5,4.5,0,0,0,212.1,29.7Z" transform="translate(-2.5 -1.4)"/><path class="b" d="M229.6,10.9a5.2,5.2,0,0,1-1.8-4A4.8,4.8,0,0,1,229.6,3a6.7,6.7,0,0,1,4.7-1.6,7.3,7.3,0,0,1,4.8,1.5,4.7,4.7,0,0,1,1.7,3.8,5,5,0,0,1-1.7,4.1,6.8,6.8,0,0,1-4.8,1.6A7.2,7.2,0,0,1,229.6,10.9Zm-.7,3.6h10.8V40.8H228.9Z" transform="translate(-2.5 -1.4)"/><path class="b" d="M250.6,39.5a12.6,12.6,0,0,1-7.4-11.9,12.6,12.6,0,0,1,7.4-11.8,19,19,0,0,1,15.7,0,13.3,13.3,0,0,1,5.4,4.8,13.4,13.4,0,0,1,0,14.1,13.3,13.3,0,0,1-5.4,4.8,18,18,0,0,1-15.7,0Zm10.9-8a5.7,5.7,0,0,0,1.2-3.9,5.3,5.3,0,0,0-1.2-3.7,4,4,0,0,0-3.1-1.4,4.1,4.1,0,0,0-3.1,1.4,5.3,5.3,0,0,0-1.2,3.7,5.7,5.7,0,0,0,1.2,3.9,4,4,0,0,0,3.1,1.3A3.9,3.9,0,0,0,261.5,31.5Z" transform="translate(-2.5 -1.4)"/></svg>