<svg xmlns="http://www.w3.org/2000/svg" viewBox="0 0 905.5 854.2"><defs><style>.a{fill:#a3a3a3;}.b{fill:#fff;}.c{fill:#a67c52;}.d{fill:#7f5432;}.e{fill:#603813;}.f{fill:#4d290f;}.g{fill:#083591;}</style></defs><title>Logo Completo</title><path class="a" d="M423.7,617.4s60.4,61.9,140,51.2,71.5-102.3,71.5-102.3-3.6-37.1-13.5-48.8-21.5-28-21.5-28,24.3-115.3-103.5-144.4-148.1,15.2-160.9,28.8-18.1,66.9-18.1,66.9-66.1,6.3-81,76.7,33.6,103.5,60.5,111S423.7,617.4,423.7,617.4Z" transform="translate(-1.1)"/><ellipse class="a" cx="218" cy="277.1" rx="88.7" ry="122.5" transform="translate(-82.7 91.3) rotate(-20)"/><ellipse class="a" cx="382.3" cy="141.7" rx="88.7" ry="122.5" transform="translate(-26.5 139.3) rotate(-20)"/><ellipse class="a" cx="622.1" cy="192.6" rx="126.2" ry="91.5" transform="translate(143.2 635.1) rotate(-60)"/><ellipse class="a" cx="727.2" cy="373.4" rx="123.8" ry="84.3" transform="translate(-27.3 690.4) rotate(-50)"/><path class="b" d="M247.5,264.6c7,10.5,9.8,29.7,36.8-9.5s22.3-76.6,54.5-65.5,46.3-.7,38.8,26.3-59,84-2.6,89,163,17.2,166.3-7.5S537,207,555.8,199.7s49.8,9.1,71.6,21.8,34.8,6.2,32.9-1.6-23.1-44-35-47.7S584.9,155,556,168.7s-48.8,31.8-73.2,30.5-99.1-3.3-112.5-13.9-52.2-28.8-61.3-22.6-40.2,32.3-47.7,52S247.5,264.6,247.5,264.6Z" transform="translate(-1.1)"/><path class="c" d="M556.4,512.8c2.5-24.7,1.7-49.6,1.6-74.4,0-5.2,1.1-10.4-.3-15.9-2.5.6-3.1,2-4,3.2-17.8,24.2-40.5,40.7-70.9,45-4.1.5-5.2,3-4.8,6.7,2.7,25.7,3.8,51.6,7.6,77.3,1.8,11.8,8.6,18.2,20.6,19.2a223.9,223.9,0,0,0,25.9.5,65.9,65.9,0,0,0,27.2-7.2c9.5-4.8,13.1-18.3,6.2-25.9S555.2,524.3,556.4,512.8Z" transform="translate(-1.1)"/><path class="c" d="M566.1,533.2c5.8,6.4,9.1,14.1,7.2,23.2-.6,2.8-2.5,5.3-2.1,8.3,8.2,2.3,24.2-4.2,27.5-11.2a7.2,7.2,0,0,0-.7-7.7,45.1,45.1,0,0,0-4.4-5.4c-6.6-6.7-7.7-14.1-3.7-22.5,7.7-16.5,9.3-34,6.9-51.8s-8.9-27.1-23.7-32.5c-8.6-3.2-9.9-1.8-9.9,7.2.1,25.7-.1,51.4-2,77C560.7,523.9,561.8,528.5,566.1,533.2Z" transform="translate(-1.1)"/><path class="c" d="M345.3,528.5c2.3-2.2,1.8-5.5,1.6-8.4-2.5-26.9-2.1-53.8-3.1-80.7-.3-6.4-1.8-7.7-8.2-5.8-11.8,3.8-19.7,11.8-22.1,23.7-3.9,18.8-4.7,37.8,3.8,55.6,5.7,12.1,4.7,22.2-5.2,31.3a10,10,0,0,0-1.6,1.9c-1.9,2.7-2.1,5.7-.1,8.2,6.4,8.2,15.7,10.1,25.9,11.6C330.4,550.6,334.7,538.8,345.3,528.5Z" transform="translate(-1.1)"/><path class="c" d="M421.7,468.2c-20.2-4.4-38.6-12.5-54.8-25.7-5.6-4.5-9.6-10.5-15.6-15.3-2.1,3-1.8,5.4-1.8,7.6.3,28.6-.6,57.2,2.3,85.7a19,19,0,0,1-5.3,15.6,46.9,46.9,0,0,0-4.2,4.7,17.8,17.8,0,0,0,6.7,26.7c17.9,8.2,36.6,8.4,55.6,5.5,10.2-1.5,16.3-7.3,17.4-17.8.2-1.9.6-3.7.8-5.6,2.2-23.7,4.4-47.3,6.7-71C430.3,470.6,429.8,470,421.7,468.2Z" transform="translate(-1.1)"/><path class="c" d="M478.6,544.7q-3-33-5.4-66c-.4-5.2-2.7-7.2-7.6-6.7a81,81,0,0,1-22-.1c-5.8-.9-8.8,1.7-8.9,7.6a44.6,44.6,0,0,1-.5,6.3c-3.5,23.4-2.3,47.4-7.3,70.7-1.2,5.2.9,7.6,6.2,7.5,6.9-.1,13.8,0,20.8,0v.3c6.5,0,13,.1,19.5,0,8.7-.1,9.2-.9,7.2-9.1A77.6,77.6,0,0,1,478.6,544.7Z" transform="translate(-1.1)"/><path class="c" d="M588,434.7c8,6.7,11.7,15.7,13.6,25.6,1,5.4,3.7,7.3,9.2,6.9a102.1,102.1,0,0,0,20.4-3.9c11.9-3.5,22.7-9.3,30.6-18.9,16-19.4,18.3-41.5,9.3-64.6-5.6-14.4-15.6-24.2-32.5-24.3-8.7-.1-14.5,3.3-17.7,11.3-1.9,4.7-3.3,9.6-5,14.3-4.4,12.3-8.8,24.5-18.1,34.3-4.9,5.3-11.4,8.5-16.6,13.6C582.9,432.4,585.9,432.9,588,434.7Z" transform="translate(-1.1)"/><path class="c" d="M523.7,182c-38.4-30-80.3-30.8-120.8-8-36.3,20.4-57.4,52.9-68.5,92.1a215.3,215.3,0,0,0-1.1,113.5c6.8,26.2,20.6,48.3,43,64.1,24.8,17.6,53.1,23.4,83,23.3,3.5,0,7.1.1,10.7,0a96.3,96.3,0,0,0,10.7-.8c34.2-4.9,58-24.7,75.7-53.1,11.9-19.2,19.3-40.2,23.9-62.1s7.7-42.9,4.6-64.6C578.8,243.4,557.9,208.7,523.7,182ZM377.9,342.5c-15.5-1.6-24.5-14.4-23.8-38.9,2.7-23.1,14.4-47.6,37.1-66,13.8-11.2,28.8-8.5,40.9,6.2,14.6,17.7,12.2,36.7,3.5,55.7A86,86,0,0,1,407,334.1C398.3,340.4,388.5,343.6,377.9,342.5Zm114.7,67.7c-7,12.7-20.3,19-40.6,19.1a45.7,45.7,0,0,1-26.5-6.9c-9.8-6.3-14.7-15.7-15.5-26.9-1-13.3,6.7-23.4,21.2-27.6,16.4-4.7,32.6-3.5,48.9,2.3,19.2,6.9,19.2,27.8,12.5,40Zm32.5-127.1c-.3,8.3-6.7,14.5-14.5,14.2s-14.1-6.9-13.9-15.6,6.8-13.4,14.8-13.2,14,5.9,13.6,14.6Z" transform="translate(-1.1)"/><path class="d" d="M383.9,577.7a91.2,91.2,0,0,1-24.2-3.2,125.2,125.2,0,0,0-21.2-3.6c-12.1-1-20.5-4-27.3-9.5-4.1-3.4-6.3-7-6.5-10.7s1.5-6.9,4.9-10.2c7.2-7.2,8.5-15,4-24.6-7.9-16.6-9.4-35-4.7-57.8,3.2-15.3,12.4-25.1,27.4-29.1,5.4-1.5,8.3-3.3,9.4-5.8s.4-5.9-2.2-10.7a144,144,0,0,1-14.6-37.3c-7.2-30.3-7.7-61.9-1.5-93.8,4.9-25.1,13.2-46.2,25.4-64.5l.6-.8c1.2-1.7,2.9-4.1.6-6.6a6.9,6.9,0,0,0-5.2-2.1,11.3,11.3,0,0,0-3,.4c-6.4,1.5-9.1,6.9-11,11.9-2.5,7.1-5,14.4-7.3,21.5l-5.3,15.6c-5.9,16.9-12,34.4-24.3,48.6a36,36,0,0,1-27,12.8,33.5,33.5,0,0,1-14.2-3.2c-9.7-4.4-15.1-12.9-16.9-26.5-2.1-16.6.8-34,9.3-54.5,11.7-28.3,26.5-49.8,45.2-65.8,14-12,30.3-18.3,47-18.3s32.2,6.1,45.8,17.5c3.5,3,6.3,4.3,9.4,4.3a17.2,17.2,0,0,0,7.7-2.2c18-9.2,36.4-13.9,54.7-13.9a121,121,0,0,1,14.7,1,99.5,99.5,0,0,1,44.1,17,8.8,8.8,0,0,0,5.2,2.1c2,0,3.7-.9,6.1-3.1,14.6-13.3,28.6-20.3,44.1-22.1a84.3,84.3,0,0,1,8.6-.5c21.8,0,41.2,10.1,59.6,30.9,19.7,22.4,33.2,49.3,40,80.1,2.7,12.7,2.8,23.9.2,34.2a30.7,30.7,0,0,1-30.1,23.5h0a31.7,31.7,0,0,1-20.8-7.7c-13.6-11.6-20.4-27-27.1-44.6-2.5-6.5-4.7-13.3-6.8-19.8-3.1-9.6-6.3-19.6-10.6-28.9-3.2-6.8-7.1-10-12.3-10a17.2,17.2,0,0,0-5.9,1.2c-3.7,1.3-5.6,2.6-6.2,4.5s0,4,2.1,7.4a171,171,0,0,1,19.9,44,139.9,139.9,0,0,1,5,48.6c-1.7,24.8-6.1,46.9-13.7,67.6a167.1,167.1,0,0,1-9.7,22.6c-3.2,5.8-3.4,11.6-3.3,18.5.1,5,3.6,5.6,6.2,5.7h.6c5.7,0,11-2,17.2-6.4,13.2-9.5,22.1-23.3,27.8-43.6.1-.4.3-.9.4-1.4s.5-1.9.8-2.8c3.3-10.2,6.9-18.7,17.4-20.6a53.7,53.7,0,0,1,7.7-.7,32.3,32.3,0,0,1,25.2,11.3c9,10.2,13.4,23.1,13.9,40.6.9,31.1-21.2,57.2-53.8,63.4-4.6.9-9.3,1.5-13.9,2l-3.6.5c-4.1.5-6,2.7-5.8,6.8.6,16.2-2.3,30.6-8.8,43.9-3.5,7.3.3,13,3.9,17.3,5.2,5.8,7.3,10.8,6.4,15.2s-4.8,8.2-11.9,11.6c-8.8,4.2-17,6.3-25.1,6.3h-4.3a17.6,17.6,0,0,0-6,1,100.2,100.2,0,0,1-33.3,5.4,150.3,150.3,0,0,1-19.5-1.4c-5.3-.8-9.3-2.1-12.2-4.2s-8.1-3.3-12.9-3.3h-2.5c-5.6.2-10.7.2-15.5.2-11.9,0-22.5-.3-32.4-1.1h-1.4a11.2,11.2,0,0,0-7.7,2.7c-3.6,2.9-8.3,4.1-11.9,4.9A118.5,118.5,0,0,1,383.9,577.7Zm-33-150.8A10.6,10.6,0,0,0,349,434v.8c.1,6.9.1,13.9.1,20.7,0,21.3,0,43.4,2.2,65.1a18.1,18.1,0,0,1-5.2,15.1q-2.2,2.4-4.2,4.8a18.1,18.1,0,0,0-3,15.5,17.9,17.9,0,0,0,9.9,12c10.7,4.9,22.2,7.2,35.4,7.2a138.3,138.3,0,0,0,20.5-1.6c10.7-1.6,16.7-7.8,17.8-18.3a25.1,25.1,0,0,1,.4-2.7c.1-1,.3-1.9.4-2.9.7-7.8,1.5-15.6,2.2-23.5l4.5-47.5c.8-8.2.1-9.1-8.2-10.9-21.4-4.7-39.2-13.1-54.6-25.6a82.5,82.5,0,0,1-7.3-7.2,71.6,71.6,0,0,0-8.3-8.2l-.4-.3ZM557.6,422a5.8,5.8,0,0,0-3.9,2.8l-.3.5c-19.3,26.2-42.4,40.9-70.6,44.8-4,.6-5.7,2.9-5.3,7.3,1,9.4,1.8,19,2.6,28.3,1.2,16.1,2.6,32.7,5,49,1.9,12.2,8.8,18.6,21.1,19.6,5.7.5,11.5.7,17.2.7l8.7-.2a64.8,64.8,0,0,0,27.3-7.2h.2a19.1,19.1,0,0,0,9.7-13.4,15.2,15.2,0,0,0-3.4-13.3c-7.5-8.2-10.2-16.6-9-28.1,2.1-20.3,1.9-41,1.7-61,0-4.5-.1-9-.1-13.5,0-1.6.1-3.2.2-4.7.2-3.7.5-7.4-.5-11.3v-.5ZM339.9,432.3a15.5,15.5,0,0,0-4.4.9c-12.3,3.8-20.1,12.2-22.5,24-3,14.4-5.7,35.9,3.8,56,5.9,12.3,4.3,22.1-5,30.6a10.6,10.6,0,0,0-1.7,2c-2.1,2.9-2.2,6.2-.1,8.8,6.4,8.2,15.6,10.2,26.2,11.7l.8.2-.3-.8c-5.3-14-2.5-25.7,9-36.9,2.3-2.2,2-5.4,1.7-8.2V520c-1.6-17.8-2-36-2.3-53.6-.2-8.8-.4-18-.8-27C344.1,434.9,343.3,432.3,339.9,432.3Zm222.9,8.9c0,24.6-.1,50.8-2,76.6-.6,6.7.9,11.3,4.9,15.7,6.4,7,8.8,14.7,7.2,22.8a16.6,16.6,0,0,1-1,2.9,11.8,11.8,0,0,0-1.2,5.6v.3h.3a15.6,15.6,0,0,0,4,.5c8.3,0,21-5.5,24.1-12a7.8,7.8,0,0,0-.7-8.3c-1.4-1.8-2.8-3.7-4.4-5.4-6.5-6.4-7.7-13.5-3.8-21.9,7.3-15.5,9.6-32.6,7-52.1s-9.2-27.5-24.1-32.9a19.1,19.1,0,0,0-6.2-1.6c-4,0-4.3,3.9-4.3,9.3v.3ZM453.4,564.8h20c4.7-.1,6.9-.4,8-1.8s.8-3.6-.3-8.1a73.4,73.4,0,0,1-2-10.4c-1.7-19.5-3.7-42.5-5.4-65.9-.4-4.9-2.5-7.2-6.6-7.2h-1.6a89.4,89.4,0,0,1-10.4.6,72,72,0,0,1-11.4-.8h-2.2c-3.2,0-7.1,1.4-7.3,8.2a42.1,42.1,0,0,1-.5,6.2c-1.5,10.1-2.1,20.3-2.8,30.3-.8,13.3-1.6,27.1-4.5,40.5-.6,2.7-.4,4.7.7,6s3,2,5.7,2h20.6ZM597.7,415.2a63.2,63.2,0,0,1-8.5,7,80.1,80.1,0,0,0-8,6.4l-.3.3.2.3a10.5,10.5,0,0,0,4.8,4.4c.7.5,1.5.9,2.1,1.4,7.1,6,11.3,14,13.4,25.4,1,5.1,3.5,7.3,8.3,7.3h1.5a103,103,0,0,0,20.5-3.9c13.2-3.9,23.6-10.3,30.9-19.1,15.6-19,18.8-40.9,9.3-65.1-6.3-16.2-17.4-24.5-33-24.7h-.4c-8.8,0-14.6,3.9-17.7,11.7-1.2,3-2.2,6-3.2,8.9l-1.8,5.4c-4.3,12-8.8,24.3-18,34.2ZM458.9,467.5h10.7a98.1,98.1,0,0,0,10.8-.8c31.6-4.5,56.5-21.9,76.1-53.4,11-17.7,18.8-38,23.9-62.3,4.1-19.3,7.8-42.2,4.6-64.7h0c-6-42.4-26.7-77.6-61.3-104.7-20.5-15.9-42.4-24-65.1-24-18.5,0-37.5,5.3-56.3,15.9-34.1,19.2-56.5,49.4-68.8,92.5a215,215,0,0,0-1,113.7c7.1,27.6,21.7,49.3,43.2,64.5s49.2,23.3,82.4,23.3ZM284.5,195.6c-1.3,0-2.3,1-3.2,1.9l-.7.6a11.2,11.2,0,0,0-1.8,2,127.1,127.1,0,0,0-26.3,57.2v.7c-.5,2.3-1,4.8,2,7h.5c2.9-1.3,3.8-3.7,4.7-5.9l.6-1.5c1.9-4.1,3.4-8.5,4.9-12.7,2.1-6.3,4.3-12.8,7.9-18.7s8-13.7,11.8-20.4l1.7-2.9c.8-1.4,2.5-4.3,0-6.4A2.8,2.8,0,0,0,284.5,195.6Zm341.2-14.1c-1.6,2.4-.9,4,.2,5.3s4.1,4.9,6.1,7.3c5.7,6.7,11.6,13.7,15.9,21.6.8,1.5,1.9,2.3,3,2.3a3.2,3.2,0,0,0,1.8-.6c2.2-1.7.9-4.2.3-5.3-4.8-8.9-9.7-17.5-17-24.1a18,18,0,0,1-1.9-2c-2.1-2.3-4.2-4.6-8-4.7h-.3Zm-321.5-6.3h-.9c-6,.9-12,6.6-13,12.4-.2,1.2-.4,2.7.4,3.6a2.7,2.7,0,0,0,2.1,1.1h.1c2.6,0,8.3-5.2,11.4-8.7s3.3-4.5,3.2-5.5A3.1,3.1,0,0,0,304.2,175.2Z" transform="translate(-1.1)"/><path class="e" d="M341.3,150.4c16.2,0,31.9,6,45.4,17.4,3.7,3.1,6.6,4.4,9.8,4.4a16.6,16.6,0,0,0,7.9-2.3c17.9-9.1,36.2-13.8,54.5-13.8a119.4,119.4,0,0,1,14.6,1,98.7,98.7,0,0,1,43.9,17c2.1,1.4,3.8,2.1,5.5,2.1s4.7-1.6,6.4-3.2c14.5-13.2,28.4-20.2,43.9-22a82.4,82.4,0,0,1,8.5-.5c21.6,0,41,10,59.2,30.7,19.7,22.3,33.1,49.2,39.9,79.9,2.7,12.7,2.8,23.8.2,34a30.4,30.4,0,0,1-29.6,23.1,31.4,31.4,0,0,1-20.5-7.6c-13.5-11.5-20.2-26.9-27-44.3-2.5-6.5-4.7-13.3-6.8-19.9-3-9.6-6.2-19.5-10.6-28.9-3.3-7-7.3-10.3-12.7-10.3a18.7,18.7,0,0,0-6.1,1.2c-3.9,1.4-5.8,2.8-6.5,4.8s0,4.4,2.2,7.9A171.9,171.9,0,0,1,583.2,265a138.2,138.2,0,0,1,5,48.3c-1.7,24.8-6.1,46.9-13.6,67.6a165.2,165.2,0,0,1-9.8,22.4c-3.2,6-3.4,11.8-3.3,18.8.1,4.1,2.3,6.1,6.7,6.2h.6c5.8,0,11.2-2,17.5-6.5,13.3-9.5,22.2-23.5,28-43.8a8.3,8.3,0,0,1,.4-1.5,27.6,27.6,0,0,1,.8-2.7c3.2-10,6.8-18.5,17-20.3a51.1,51.1,0,0,1,7.6-.7A31.7,31.7,0,0,1,664.9,364c8.9,10.1,13.3,22.9,13.8,40.2a58.9,58.9,0,0,1-14.1,40.7c-9.7,11.5-23.3,19.2-39.3,22.2-4.6.9-9.3,1.5-13.8,2.1l-3.6.4c-4.4.5-6.5,3-6.3,7.4.6,16-2.3,30.3-8.8,43.6-3.6,7.5.3,13.5,4.1,17.8s7,10.6,6.2,14.8-4.7,7.9-11.6,11.2c-8.8,4.2-16.9,6.3-24.9,6.3h-4.3a16.6,16.6,0,0,0-6.2,1.1A101.2,101.2,0,0,1,523,577a148.9,148.9,0,0,1-19.4-1.4c-5.2-.8-9.2-2.1-12.1-4.1s-8.9-3.4-13.1-3.4h-2.5c-5.6.2-10.7.2-15.5.2-11.9,0-22.5-.3-32.3-1.1h-1.5a12,12,0,0,0-8,2.8c-3.5,2.9-8.1,4.1-11.7,4.8a117.6,117.6,0,0,1-23,2.4,90.5,90.5,0,0,1-24.1-3.2,126.9,126.9,0,0,0-21.2-3.6c-12-1-20.4-3.9-27.1-9.4-4-3.3-6.1-6.7-6.3-10.3s1.4-6.6,4.7-9.9c7.4-7.3,8.7-15.3,4.1-25.1-7.8-16.6-9.2-34.8-4.6-57.5,3.1-15.1,12.2-24.8,27-28.8,5.6-1.4,8.6-3.3,9.8-6.1s.4-6.1-2.3-11a150.8,150.8,0,0,1-14.6-37.2,221.7,221.7,0,0,1-1.4-93.6c4.9-25.1,13.2-46.1,25.3-64.3l.6-.8c1.3-1.8,3.2-4.4.5-7.2a7.2,7.2,0,0,0-5.5-2.3,12,12,0,0,0-3.1.4c-6.6,1.6-9.5,7.1-11.3,12.3-2.6,7.1-5,14.4-7.4,21.4l-5.3,15.6c-5.8,16.9-11.9,34.4-24.2,48.5a35.3,35.3,0,0,1-26.6,12.6,34.3,34.3,0,0,1-14-3.1c-9.5-4.4-14.8-12.7-16.6-26.1-2.1-16.6.8-33.9,9.3-54.3,11.6-28.2,26.3-49.6,45-65.6,14-11.9,30.1-18.2,46.7-18.2M458.1,468h11.5a99.9,99.9,0,0,0,10.9-.8c31.7-4.5,56.7-22,76.4-53.6,11-17.8,18.9-38.2,24-62.5,4.1-19.4,7.8-42.3,4.6-64.9h0c-6-42.5-26.7-77.8-61.5-105-20.6-16-42.6-24.1-65.4-24.1-18.6,0-37.6,5.4-56.6,16-34.1,19.2-56.7,49.5-68.9,92.7a215.1,215.1,0,0,0-1.1,114c7.2,27.8,21.8,49.5,43.4,64.8S424.8,468,458.1,468M292.9,192.8c3,0,9.2-6,11.8-8.9s3.3-5.4,3.3-5.9a3.5,3.5,0,0,0-3.8-3.3h-1c-6.1.9-12.4,6.8-13.4,12.8a4.6,4.6,0,0,0,.5,4,3.2,3.2,0,0,0,2.4,1.3h.2m358,25.7a3.5,3.5,0,0,0,2.1-.7c2.6-2,1-4.8.5-5.9-4.9-9-9.8-17.6-17.2-24.3l-1.9-1.9c-2-2.3-4.3-4.8-8.3-4.9h-.5l-.3.4c-1.8,2.7-.9,4.5.2,5.9s4.1,4.9,6.1,7.3c5.7,6.7,11.6,13.7,15.8,21.5,1.2,2.2,2.6,2.6,3.5,2.6M254.6,265.7l.5-.2c3.1-1.5,4.1-4,5-6.2l.6-1.5a131.4,131.4,0,0,0,4.8-12.7c2.2-6.3,4.4-12.8,7.9-18.6L285.3,206l1.7-2.9c.8-1.4,2.6-4.6-.1-7a4.2,4.2,0,0,0-2.4-1c-1.5,0-2.6,1.1-3.6,2l-.7.7a17.1,17.1,0,0,0-1.8,2A127.4,127.4,0,0,0,252,257.3c0,.2-.1.4-.1.6-.5,2.3-1,5.2,2.2,7.5l.5.3M597.2,415a54.7,54.7,0,0,1-8.3,6.8,80.1,80.1,0,0,0-8,6.4l-.6.6.4.6a10.9,10.9,0,0,0,4.9,4.7,10.7,10.7,0,0,1,2.1,1.3c6.9,5.9,11.2,13.8,13.2,25.1,1,5.3,3.7,7.7,8.8,7.7h1.5a102.6,102.6,0,0,0,20.6-3.9c13.4-3.9,23.8-10.4,31.1-19.3,15.8-19.1,19-41.2,9.5-65.6-6.4-16.4-17.7-24.8-33.5-25h-.4c-9,0-15,4-18.2,12.1-1.1,2.9-2.2,5.9-3.2,8.9l-1.8,5.4c-4.3,11.9-8.7,24.2-17.8,33.9l-.3.3M523.4,575.5l8.8-.2a66.2,66.2,0,0,0,27.2-7.1h0l.4-.2a19,19,0,0,0,10-13.7,15.7,15.7,0,0,0-3.5-13.7c-7.4-8.1-10-16.4-8.9-27.8,2.1-20.2,1.9-41,1.7-61,0-4.4-.1-9-.1-13.5,0-1.6.1-3.1.2-4.7.2-3.7.5-7.5-.5-11.4l-.3-1-.9.3a6.2,6.2,0,0,0-4.2,3,1,1,0,0,1-.4.5c-19.2,26.1-42.1,40.7-70.2,44.6q-6.3.9-5.7,7.8c1,9.5,1.8,19.1,2.6,28.4,1.3,16,2.6,32.7,5,48.9,1.9,12.3,9.1,19.1,21.6,20.1,5.7.5,11.5.7,17.2.7m-139.2.2a140.6,140.6,0,0,0,20.6-1.6c10.9-1.7,17.1-8,18.2-18.7a27,27,0,0,1,.4-2.8c.1-.9.3-1.9.4-2.8.7-7.9,1.5-15.8,2.2-23.7,1.5-15.5,3-31.6,4.5-47.3.8-8.6,0-9.6-8.6-11.5-21.3-4.7-39.1-13-54.4-25.5a69.9,69.9,0,0,1-7.2-7.2,93.7,93.7,0,0,0-8.4-8.2l-.8-.6-.7.8c-2,2.9-1.9,5.3-1.9,7.4v.8c.1,6.9.1,13.9.1,20.7,0,21.4,0,43.5,2.2,65.2a17.7,17.7,0,0,1-5,14.7,49.1,49.1,0,0,0-4.3,4.8,18.7,18.7,0,0,0-3.1,15.9,17.9,17.9,0,0,0,10.2,12.3c10.7,5,22.4,7.3,35.6,7.3M562.3,441.5c0,24.5-.1,50.6-2,76.2-.6,6.9.9,11.6,5.1,16.2,6.2,6.8,8.6,14.3,7,22.3a15.7,15.7,0,0,1-1,2.8c-.7,1.8-1.5,3.7-1.2,5.9v.6l.7.2a16.4,16.4,0,0,0,4.1.5c8.4,0,21.4-5.7,24.5-12.2a8.3,8.3,0,0,0-.7-8.8,48.9,48.9,0,0,0-4.5-5.5c-6.3-6.3-7.4-13.2-3.6-21.4,7.3-15.6,9.6-32.7,7-52.4s-9.3-27.8-24.4-33.3A20.6,20.6,0,0,0,567,431c-4.4,0-4.8,4.3-4.8,9.8v.7h.1M337.8,567.1l-.6-1.6c-5.3-13.7-2.5-25.3,8.8-36.3,2.5-2.4,2.2-5.8,1.9-8.7V520c-1.6-17.9-2-36-2.3-53.6-.2-8.9-.4-18-.8-27-.1-3.7-.6-7.6-4.8-7.6a16.6,16.6,0,0,0-4.6.9c-12.5,3.9-20.4,12.4-22.8,24.4-3,14.5-5.8,36.1,3.8,56.3,5.8,12.1,4.2,21.7-4.9,30l-1.7,2.1c-2.3,3.2-2.3,6.6-.1,9.4,6.5,8.3,15.8,10.3,26.5,11.9l1.7.3m95-2.2h20.1v.4h20.5c4.9-.1,7.2-.4,8.4-2s.8-4.3-.2-8.5a62.4,62.4,0,0,1-2-10.3c-1.7-19.5-3.7-42.6-5.4-65.9-.4-5.2-2.7-7.7-7.1-7.7h-1.7a88.9,88.9,0,0,1-10.3.6,72.8,72.8,0,0,1-11.4-.8h-2.2c-3.5,0-7.6,1.5-7.8,8.7a41.8,41.8,0,0,1-.5,6.1c-1.5,10.1-2.1,20.4-2.8,30.4-.8,13.3-1.6,27.1-4.5,40.4-.6,2.8-.4,4.9.8,6.4s3.2,2.2,6.1,2.2M341.3,149.4c-16.5,0-33,6.2-47.3,18.5-21.1,17.9-35,40.8-45.4,65.9-7.2,17.4-11.7,35.7-9.3,54.8,1.6,11.5,5.8,21.6,17.2,26.9a35,35,0,0,0,14.4,3.2,36.5,36.5,0,0,0,27.4-13c12.3-14.1,18.4-31.5,24.4-48.8,4.3-12.3,8.2-24.7,12.6-37,1.9-5.1,4.6-10.2,10.6-11.6a10.1,10.1,0,0,1,2.9-.4,6.3,6.3,0,0,1,4.8,1.9c2.4,2.6.1,4.9-1.2,6.8-13.1,19.7-21,41.7-25.5,64.7-6.1,31.3-5.9,62.8,1.5,94a143.5,143.5,0,0,0,14.7,37.4c4.9,9.2,3,13.1-6.9,15.8-15.4,4.1-24.6,14.2-27.8,29.5-4,19.8-4.1,39.4,4.7,58.1,4.2,9,3.6,16.6-3.9,24s-6.4,15,1.7,21.7,17.6,8.8,27.6,9.6a124.6,124.6,0,0,1,21,3.6,92.4,92.4,0,0,0,24.4,3.2,121.8,121.8,0,0,0,23.2-2.4c4.3-.9,8.7-2.2,12.1-5.1a11.4,11.4,0,0,1,7.4-2.5H428c10.8.8,21.6,1.1,32.4,1.1,5.2,0,10.4,0,15.5-.2h2.5c4.4,0,8.5.5,12.6,3.2s8,3.6,12.4,4.2A144.9,144.9,0,0,0,523,578a101.7,101.7,0,0,0,33.5-5.4,16.1,16.1,0,0,1,5.8-1h4.3c8.9,0,17.3-2.5,25.3-6.4,14.3-6.8,16.2-15.7,5.7-27.6-4.3-4.9-7-10.2-3.9-16.7,6.9-13.9,9.5-28.7,8.9-44.1-.2-3.8,1.6-5.8,5.4-6.3,5.8-.8,11.7-1.4,17.5-2.5,33.1-6.3,55.2-32.4,54.2-63.9-.4-15.1-3.8-29.3-14-40.9a32.9,32.9,0,0,0-25.6-11.5,51.2,51.2,0,0,0-7.7.7c-11.1,2-14.8,11.5-17.9,20.9l-1.2,4.3c-4.8,17.2-12.6,32.6-27.6,43.3-5.1,3.6-10.5,6.3-16.9,6.3h-.6c-3.5-.1-5.6-1.4-5.7-5.2-.1-6.3-.1-12.3,3.2-18.3a167.6,167.6,0,0,0,9.8-22.6c8-21.9,12.1-44.6,13.7-67.8a140.5,140.5,0,0,0-5-48.7,177.1,177.1,0,0,0-19.9-44.1c-4-6.2-3-8.8,3.8-11.2a16.2,16.2,0,0,1,5.7-1.2c5,0,8.7,3.1,11.8,9.7,7.3,15.7,11.2,32.7,17.4,48.7s13.2,32.8,27.3,44.8a32.7,32.7,0,0,0,21.1,7.8A31.4,31.4,0,0,0,682,295.3c2.9-11.4,2.2-23-.3-34.4-6.6-30.1-19.7-57.2-40-80.4-16.2-18.3-35.4-31-60-31a84.3,84.3,0,0,0-8.6.5c-17.5,2-31.8,10.7-44.4,22.3-2.1,1.8-3.8,2.9-5.8,2.9a9,9,0,0,1-5-2,99.5,99.5,0,0,0-44.2-17.1,124,124,0,0,0-14.8-1c-19.2,0-37.5,5-54.9,13.9a15.8,15.8,0,0,1-7.5,2.2c-3.1,0-5.8-1.4-9.1-4.1-14-11.8-30-17.7-46.1-17.7ZM458.1,467c-29.6,0-57.5-5.9-82.2-23.3-22.4-15.8-36.1-37.9-42.9-64.1a214.3,214.3,0,0,1,1-113.5c11.1-39.2,32.2-71.7,68.5-92.1,18.6-10.4,37.4-15.9,56.1-15.9,22.1,0,43.9,7.7,64.7,23.9,34.2,26.7,55.1,61.4,61.2,104.4h0c3.1,21.6-.1,43.2-4.5,64.5s-12,42.9-23.9,62.1c-17.7,28.5-41.5,48.4-75.8,53.2a94.5,94.5,0,0,1-10.7.8H458.1ZM292.9,191.8h0c-2.4-.3-2.5-2-2.1-4.1.9-5.6,6.8-11.2,12.5-12h.9a2.5,2.5,0,0,1,2.8,2.4c.4,2.7-10.8,13.7-14.1,13.7Zm358,25.7c-1.1,0-2-1-2.6-2.1-5.9-10.7-14.4-19.5-22-28.9-.9-1.2-1.7-2.5-.2-4.7,4.7.1,6.8,4,9.5,6.6,7.4,6.7,12.3,15.3,17,24,.7,1.4,1.6,3.2-.2,4.6a2.3,2.3,0,0,1-1.5.5ZM254.7,264.6c-3-2.2-2.2-4.8-1.7-7.2a126.2,126.2,0,0,1,26.2-57,15.4,15.4,0,0,1,1.7-1.9c1.1-.9,2.2-2.4,3.6-2.4a2.4,2.4,0,0,1,1.7.8c2,1.6,1,3.9-.1,5.7-4.5,7.8-8.9,15.7-13.6,23.4-5.9,9.8-8.1,21.1-12.7,31.4-1.2,2.6-1.7,5.6-5.1,7.2Zm355,202.6c-4.5,0-6.9-2-7.8-6.9-1.8-9.9-5.6-18.9-13.6-25.7-2-1.7-5-2.2-6.7-5.6,5.2-5.1,11.7-8.3,16.6-13.6h0c9.2-9.9,13.6-22,18-34.3,1.7-4.7,3.2-9.6,5-14.3,3.2-7.9,8.9-11.4,17.3-11.4h.4c16.9.2,26.9,9.9,32.6,24.4,9,23.1,6.7,45.2-9.3,64.6-7.9,9.6-18.7,15.4-30.7,18.9a100.7,100.7,0,0,1-20.4,3.9ZM523.4,574.5c-5.7,0-11.4-.2-17.1-.7-12.1-1-18.9-7.3-20.7-19.2-3.8-25.6-4.9-51.5-7.6-77.3-.3-3.6.8-6.1,4.8-6.7,30.5-4.2,53.1-20.8,71-45,.8-1.1,1.4-2.6,3.9-3.2,1.4,5.5.3,10.7.3,15.9.1,24.8,1,49.7-1.6,74.4-1.2,11.6,1.6,20.2,9.1,28.6s3.3,21-6.2,25.8h0a64.4,64.4,0,0,1-27.2,7.2l-8.7.2Zm-139.2.2c-12,0-23.8-1.9-35.2-7.2s-13.4-17.8-6.7-26.7a61.4,61.4,0,0,1,4.2-4.7,18.9,18.9,0,0,0,5.3-15.5c-2.9-28.6-2-57.2-2.3-85.8,0-2.2-.3-4.6,1.8-7.6,6,4.9,10,10.9,15.6,15.4,16.2,13.2,34.6,21.2,54.8,25.7,8.1,1.7,8.6,2.4,7.8,10.4q-3.5,35.4-6.7,71c-.2,1.8-.6,3.7-.8,5.6-1.1,10.4-7.2,16.2-17.4,17.8a140.2,140.2,0,0,1-20.4,1.6Zm190.9-9.5a16,16,0,0,1-3.9-.5c-.4-3,1.6-5.5,2.2-8.3,1.8-9.1-1.5-16.9-7.3-23.2-4.3-4.7-5.3-9.3-4.8-15.4,1.9-25.6,2-51.3,2-77h-.1c0-6.2.6-8.8,3.8-8.8a22.7,22.7,0,0,1,6.1,1.5c14.8,5.5,21.3,14.5,23.7,32.6s.9,35.2-6.9,51.8c-4,8.4-2.9,15.8,3.8,22.5a57.5,57.5,0,0,1,4.4,5.4,7,7,0,0,1,.6,7.7c-2.8,6-15,11.7-23.6,11.7Zm-238.9.7c-10.1-1.6-19.4-3.4-25.8-11.6-2-2.5-1.9-5.5.1-8.2a10,10,0,0,1,1.6-1.9c9.9-9.1,10.9-19.2,5.1-31.3-8.4-17.8-7.6-36.8-3.8-55.6,2.5-11.8,10.4-19.9,22.2-23.7a17.3,17.3,0,0,1,4.3-.8c2.8,0,3.7,2,3.8,6.6,1.1,26.9.7,53.8,3.1,80.7.3,2.9.8,6.1-1.5,8.4-10.6,10.3-14.9,22.1-9.1,37.4Zm96.6-2c-5.1,0-7-2.3-5.9-7.4,5-23.3,3.8-47.3,7.3-70.8a44.6,44.6,0,0,0,.5-6.3c.1-5.1,2.4-7.7,6.8-7.7h2.1a74.1,74.1,0,0,0,11.5.8,92.4,92.4,0,0,0,10.5-.6h1.5c3.9,0,5.7,2.1,6.1,6.7,1.6,22.1,3.4,44,5.4,66a77.6,77.6,0,0,0,2,10.5c2,8.3,1.5,9.1-7.2,9.2H453.9v-.4H432.8Z" transform="translate(-1.1)"/><path class="d" d="M382,342.2l-4.1-.2c-15.9-1.7-23.9-15-23.3-38.4,3-25.4,16.1-48.8,36.9-65.7,5.6-4.4,11.3-6.7,17.2-6.7,8.1,0,16.1,4.4,23.1,12.9,12.5,15.2,13.6,32.8,3.4,55.2a86,86,0,0,1-28.5,34.4c-7.8,5.6-16.1,8.5-24.7,8.5Zm16-68.8c-3.1.1-4.9,2.2-5.1,5.6s1.8,5.5,5.7,6.1h.3c2.5-1,5-2.4,4.8-6.1s-2.2-5.6-5.4-5.6Z" transform="translate(-1.1)"/><path class="e" d="M408.7,231.7c8,0,15.8,4.4,22.7,12.7,12.4,15.1,13.4,32.5,3.3,54.7a84.8,84.8,0,0,1-28.3,34.2c-7.7,5.6-15.9,8.4-24.4,8.4l-4-.2c-15.6-1.7-23.5-14.7-22.9-37.8,3-25.4,16.1-48.6,36.7-65.4,5.5-4.4,11.2-6.6,16.9-6.6m-10,53.9h.4c1.6-.7,5.4-2.1,5.1-6.6s-2.4-6.1-5.9-6.1H398c-3.3.2-5.4,2.4-5.6,6s.9,5.9,6.2,6.7h.1m10-54.9c-5.9,0-11.8,2.2-17.5,6.8-22.7,18.5-34.4,43-37.1,66.1-.7,24.5,8.3,37.2,23.8,38.9l4.1.2c9.1,0,17.4-3.1,25-8.6a86,86,0,0,0,28.6-34.6c8.7-19,11.1-38-3.5-55.7-7.1-8.6-15.2-13.1-23.4-13.1Zm-10,53.9c-3.6-.6-5.4-2.4-5.3-5.6s1.6-5,4.6-5.1h.3c3.1,0,4.7,2.1,4.9,5.2s-2.1,4.6-4.5,5.5Z" transform="translate(-1.1)"/><path class="d" d="M449.9,428.9a43.9,43.9,0,0,1-23.9-7c-9.4-6-14.5-14.8-15.4-26.4s6.7-23,20.9-27.1a74.5,74.5,0,0,1,20.4-2.9,82.3,82.3,0,0,1,28.2,5.2c7.1,2.5,12.1,7.3,14.5,13.7s2,17.7-2.3,25.5c-6.9,12.6-20.1,18.8-40.2,18.9Z" transform="translate(-1.1)"/><path class="e" d="M451.9,366a83.5,83.5,0,0,1,28,5.1c6.9,2.5,11.9,7.2,14.3,13.5s1.9,17.4-2.3,25.1c-6.8,12.4-19.9,18.5-39.8,18.6h-2.2a44.2,44.2,0,0,1-23.7-6.9c-9.2-5.9-14.2-14.6-15.1-26s6.6-22.6,20.5-26.6a74.3,74.3,0,0,1,20.3-2.9m0-1a73.7,73.7,0,0,0-20.6,2.9c-14.4,4.2-22.1,14.3-21.2,27.6.8,11.2,5.7,20.5,15.6,26.9a46.3,46.3,0,0,0,24.2,7h2.2c20.3-.1,33.7-6.4,40.7-19.1s6.7-33.1-12.6-40a83.1,83.1,0,0,0-28.3-5.2Z" transform="translate(-1.1)"/><path class="f" d="M511.5,268.6c-8-.3-14.6,5.6-14.8,13.2s5.6,15.3,13.9,15.6,14.2-5.9,14.5-14.2S520.2,268.8,511.5,268.6ZM505.8,284c-3.2-.3-5.1-1.9-5.2-5.1s1.3-5.2,4.7-5.2a4.4,4.4,0,0,1,4.8,4.6C510.3,281.4,509,283.5,505.8,284Z" transform="translate(-1.1)"/><path class="f" d="M378.5,283.6c.3,8.3,6.7,14.5,14.6,14.2s14.1-6.9,13.8-15.6-6.7-13.5-14.7-13.3S378.2,274.8,378.5,283.6Zm15-4.9a4.5,4.5,0,0,1,4.9-4.6c3.3,0,4.8,2,4.7,5.2s-2.1,4.8-5.2,5.1S393.4,281.8,393.5,278.7Z" transform="translate(-1.1)"/><polygon class="e" points="9.8 198.3 90.2 226.3 455.1 0 9.8 198.3"/><polygon class="e" points="905.5 198.3 825.1 226.3 460.2 0 905.5 198.3"/><path class="g" d="M167,731.2h-8.9v24.4H125.4V658.5h46.8a58.5,58.5,0,0,1,23.4,4.4,36,36,0,0,1,16.1,50.4,33.5,33.5,0,0,1-13.6,12.4l20.4,29.9h-35Zm13.1-44.5c-2.3-1.9-5.6-2.9-10-2.9h-12v22.7h12c4.4,0,7.7-1,10-3s3.3-4.8,3.3-8.4S182.3,688.7,180.1,686.7Z" transform="translate(-1.1)"/><path class="g" d="M309.5,730.9v24.7H228.8V658.5h78.9v24.7H260.9v11.4H302v23.6H260.9v12.7Z" transform="translate(-1.1)"/><path class="g" d="M354.9,683.2v16.7h40.5v24.6H354.9v31.1H322.1V658.5h79v24.7Z" transform="translate(-1.1)"/><path class="g" d="M423.1,745.8c-8.3-8.1-12.5-19.4-12.5-33.9V658.5h32.8V711c0,7.1,1.3,12.3,3.8,15.5s6.2,4.8,11,4.8,8.5-1.6,11.1-4.8,3.8-8.4,3.8-15.5V658.5h32.2v53.4c0,14.5-4.2,25.8-12.5,33.9s-20,12-34.9,12S431.4,753.8,423.1,745.8Z" transform="translate(-1.1)"/><path class="g" d="M584.5,704.4h28.4v41.1a66.9,66.9,0,0,1-20,9.2,83.2,83.2,0,0,1-22.3,3.1c-10.4,0-19.7-2.1-27.9-6.4a47.9,47.9,0,0,1-19.3-18,52.9,52.9,0,0,1,0-52.6,47.4,47.4,0,0,1,19.5-18.1c8.4-4.3,17.8-6.4,28.4-6.4a65.3,65.3,0,0,1,25.6,4.8A48.4,48.4,0,0,1,615.7,675l-21,18.5c-6.1-7.2-13.3-10.7-21.7-10.7s-13,2.2-17.2,6.5-6.4,10.3-6.4,17.8,2.1,13.1,6.3,17.6,9.8,6.6,16.8,6.6a30.5,30.5,0,0,0,12-2.3Z" transform="translate(-1.1)"/><path class="g" d="M626.9,658.5h32.8v97.1H626.9Z" transform="translate(-1.1)"/><path class="g" d="M698.2,751.3a48.8,48.8,0,0,1-26.6-44.2,48.8,48.8,0,0,1,26.6-44.3,64.4,64.4,0,0,1,56.4,0,50.6,50.6,0,0,1,19.5,70.4,48.7,48.7,0,0,1-19.5,18.1,59.8,59.8,0,0,1-28.2,6.5C715.9,757.8,706.6,755.7,698.2,751.3Zm39.2-22.9a21.7,21.7,0,0,0,7.9-8.5,27.5,27.5,0,0,0,2.9-12.8,27.9,27.9,0,0,0-2.9-12.9,22.1,22.1,0,0,0-7.9-8.4,20.6,20.6,0,0,0-11-3,20.4,20.4,0,0,0-11,3,22.1,22.1,0,0,0-7.9,8.4,27.9,27.9,0,0,0-2.9,12.9,27.5,27.5,0,0,0,2.9,12.8,21.7,21.7,0,0,0,7.9,8.5,20.3,20.3,0,0,0,11,2.9A20.6,20.6,0,0,0,737.4,728.4Z" transform="translate(-1.1)"/><path class="c" d="M12.4,852.6a36,36,0,0,1-11.3-4.4l6.3-14.3a43.3,43.3,0,0,0,9.3,3.9,36.1,36.1,0,0,0,9.9,1.5,16.2,16.2,0,0,0,5.9-.8,2.8,2.8,0,0,0,1.7-2.4c0-1.2-.7-2.1-2.3-2.8a60.1,60.1,0,0,0-7.5-2,76.6,76.6,0,0,1-11.2-3A19.7,19.7,0,0,1,5.3,823C3.1,820.5,2,817.2,2,813a16.9,16.9,0,0,1,3.1-10,19.8,19.8,0,0,1,9.2-7.1,38.4,38.4,0,0,1,14.8-2.6,51.4,51.4,0,0,1,11.8,1.3,36.1,36.1,0,0,1,10.2,3.8l-5.9,14.2A35.7,35.7,0,0,0,29,808.3c-5.1,0-7.6,1.2-7.6,3.7s.7,2,2.2,2.6a41.1,41.1,0,0,0,7.5,1.8,85.5,85.5,0,0,1,11.2,2.9,20.1,20.1,0,0,1,7.9,5.3c2.3,2.4,3.4,5.8,3.4,10a16.4,16.4,0,0,1-3.1,9.9,19.8,19.8,0,0,1-9.2,7.1c-4,1.8-9,2.6-14.8,2.6A59.2,59.2,0,0,1,12.4,852.6Z" transform="translate(-1.1)"/><path class="c" d="M99.1,842.8H77l-3.9,10.1h-20l25.5-58.3H97.9l25.5,58.3H103.1Zm-5.4-14.2L88.1,814l-5.7,14.6Z" transform="translate(-1.1)"/><path class="c" d="M184,794.6v58.3H167.8l-22.1-26.5v26.5H126.5V794.6h16.2l22.1,26.5V794.6Z" transform="translate(-1.1)"/><path class="c" d="M257,822.2h17v24.6a39,39,0,0,1-12,5.5,48.2,48.2,0,0,1-13.4,1.9,36.3,36.3,0,0,1-16.7-3.8,29,29,0,0,1-11.6-10.9,29.5,29.5,0,0,1-4.2-15.7,29.9,29.9,0,0,1,4.2-15.8A29.1,29.1,0,0,1,232,797.2a36.8,36.8,0,0,1,17.1-3.9,39,39,0,0,1,15.3,2.9,29.4,29.4,0,0,1,11.3,8.3l-12.6,11.1c-3.6-4.3-8-6.4-13-6.4s-7.8,1.3-10.4,3.9-3.8,6.2-3.8,10.7,1.3,7.9,3.8,10.5,5.9,4,10.1,4a17.8,17.8,0,0,0,7.2-1.4Z" transform="translate(-1.1)"/><path class="c" d="M307.4,838.3h-5.3v14.6H282.4V794.6h28.1a34.1,34.1,0,0,1,14.1,2.7,21.1,21.1,0,0,1,9.2,7.7,22.6,22.6,0,0,1,.4,22.5,20.1,20.1,0,0,1-8.1,7.4l12.2,18h-21Zm7.8-26.7q-1.9-1.8-6-1.8h-7.1v13.6h7.1c2.7,0,4.7-.6,6-1.7a6.3,6.3,0,0,0,2-5.1A6.2,6.2,0,0,0,315.2,811.6Z" transform="translate(-1.1)"/><path class="c" d="M392.9,838.1v14.8H344.4V794.6h47.4v14.9h-28v6.8h24.6v14.1H363.8v7.7Z" transform="translate(-1.1)"/><path class="c" d="M439,822.2h17.1v24.6a41.2,41.2,0,0,1-12,5.5,48.7,48.7,0,0,1-13.4,1.9,37.1,37.1,0,0,1-16.8-3.8,29,29,0,0,1-11.6-10.9,29.5,29.5,0,0,1-4.2-15.7,29.9,29.9,0,0,1,4.2-15.8,29.4,29.4,0,0,1,11.8-10.8,36.4,36.4,0,0,1,17-3.9,39.9,39.9,0,0,1,15.4,2.9,29.1,29.1,0,0,1,11.2,8.3l-12.5,11.1c-3.7-4.3-8.1-6.4-13.1-6.4s-7.8,1.3-10.3,3.9-3.9,6.2-3.9,10.7,1.3,7.9,3.8,10.5a13.3,13.3,0,0,0,10.1,4,17.8,17.8,0,0,0,7.2-1.4Z" transform="translate(-1.1)"/><path class="c" d="M478.1,850.3a29.1,29.1,0,0,1-11.7-10.8,30.1,30.1,0,0,1-4.3-15.7,29.5,29.5,0,0,1,16-26.6,38.6,38.6,0,0,1,33.8,0,30.3,30.3,0,0,1,11.8,10.9,29.5,29.5,0,0,1,4.2,15.7,28.8,28.8,0,0,1-16,26.5,38.6,38.6,0,0,1-33.8,0Zm23.5-13.7a12.2,12.2,0,0,0,4.7-5.1,15.9,15.9,0,0,0,1.8-7.7,15.7,15.7,0,0,0-1.8-7.7,12.2,12.2,0,0,0-4.7-5.1,12.1,12.1,0,0,0-6.6-1.8,12.6,12.6,0,0,0-6.6,1.8,12.9,12.9,0,0,0-4.7,5.1,15.6,15.6,0,0,0-1.7,7.7,15.9,15.9,0,0,0,1.7,7.7,12.9,12.9,0,0,0,4.7,5.1,13.5,13.5,0,0,0,6.6,1.7A13,13,0,0,0,501.6,836.6Z" transform="translate(-1.1)"/><path class="c" d="M560,838.3h-5.3v14.6H535.1V794.6h28a34.1,34.1,0,0,1,14.1,2.7,20.1,20.1,0,0,1,9.2,7.7,22,22,0,0,1,.4,22.5,19.4,19.4,0,0,1-8.1,7.4l12.2,18h-21Zm7.9-26.7a9,9,0,0,0-6-1.8h-7.2v13.6h7.2a9.5,9.5,0,0,0,6-1.7,6.6,6.6,0,0,0,2-5.1A6.5,6.5,0,0,0,567.9,811.6Z" transform="translate(-1.1)"/><path class="c" d="M597.1,794.6h19.6v58.3H597.1Z" transform="translate(-1.1)"/><path class="c" d="M639.9,850.3a28.8,28.8,0,0,1-16-26.5,29.5,29.5,0,0,1,4.2-15.7,30.3,30.3,0,0,1,11.8-10.9,38.6,38.6,0,0,1,33.8,0,30,30,0,0,1,11.7,10.9,29.5,29.5,0,0,1,4.2,15.7,28.9,28.9,0,0,1-15.9,26.5,38.6,38.6,0,0,1-33.8,0Zm23.5-13.7a13.7,13.7,0,0,0,4.7-5.1,17.1,17.1,0,0,0,1.7-7.7,16.8,16.8,0,0,0-1.7-7.7,13.7,13.7,0,0,0-4.7-5.1,13.2,13.2,0,0,0-13.3,0,13.7,13.7,0,0,0-4.7,5.1,16.8,16.8,0,0,0-1.7,7.7,17.1,17.1,0,0,0,1.7,7.7,12.2,12.2,0,0,0,11.4,6.8A13.5,13.5,0,0,0,663.4,836.6Z" transform="translate(-1.1)"/><path class="c" d="M761.5,842.8H739.3l-3.9,10.1h-20l25.5-58.3h19.3l25.5,58.3H765.4Zm-5.4-14.2L750.4,814l-5.7,14.6Z" transform="translate(-1.1)"/><path class="c" d="M791.4,850.7a11.2,11.2,0,0,1,0-15.5,12.1,12.1,0,0,1,15.7,0,11.2,11.2,0,0,1,0,15.5,11.8,11.8,0,0,1-15.7,0Z" transform="translate(-1.1)"/><path class="c" d="M828.5,850.4a28.4,28.4,0,0,1-11.6-10.9,29.5,29.5,0,0,1-4.2-15.7,29.9,29.9,0,0,1,4.2-15.8,28.8,28.8,0,0,1,11.6-10.8,35.1,35.1,0,0,1,16.6-3.9,36.8,36.8,0,0,1,15.2,3,28.4,28.4,0,0,1,11,8.7l-12.4,11c-3.6-4.5-7.9-6.8-12.8-6.8a12.8,12.8,0,0,0-9.9,4c-2.5,2.6-3.7,6.1-3.7,10.6s1.2,8,3.7,10.6a13.1,13.1,0,0,0,9.9,3.9c4.9,0,9.2-2.2,12.8-6.8l12.4,11.1a28.2,28.2,0,0,1-11,8.6,36.8,36.8,0,0,1-15.2,3A36.2,36.2,0,0,1,828.5,850.4Z" transform="translate(-1.1)"/><path class="c" d="M877.8,850.7a11.2,11.2,0,0,1,0-15.5,12.1,12.1,0,0,1,15.7,0,11.2,11.2,0,0,1,0,15.5,11.8,11.8,0,0,1-15.7,0Z" transform="translate(-1.1)"/></svg>