<svg xmlns="http://www.w3.org/2000/svg" viewBox="0 0 928.2 852.1"><title>Perro-Logo</title><path d="M429.51,857s79.56,81.43,184.4,67.39S708,789.62,708,789.62s-4.69-48.81-17.79-64.18S662,688.55,662,688.55s32-151.74-136.3-190.06-195.06,20-211.85,37.84-23.82,88.1-23.82,88.1-87.05,8.27-106.7,101,44.32,136.27,79.72,146.1S429.51,857,429.51,857Z" transform="translate(-35.9 -73.95)" style="fill:#a3a3a3"/><ellipse cx="158.73" cy="408.87" rx="116.76" ry="161.24" transform="translate(-166.17 4.99) rotate(-20)" style="fill:#a3a3a3"/><ellipse cx="375.05" cy="230.68" rx="116.76" ry="161.24" transform="translate(-92.18 68.23) rotate(-20)" style="fill:#a3a3a3"/><ellipse cx="690.81" cy="297.69" rx="166.15" ry="120.41" transform="translate(51.7 673.15) rotate(-60)" style="fill:#a3a3a3"/><ellipse cx="829.14" cy="535.65" rx="162.98" ry="111.05" transform="translate(-150.05 752.55) rotate(-50)" style="fill:#a3a3a3"/><path d="M204.21,400.36s88.63-118.08,76.15-127.2S226,299,206.44,347.36,204.21,400.36,204.21,400.36Z" transform="translate(-35.9 -73.95)" style="fill:#fff"/><path d="M732.05,333.64l4.79-7.68S705.43,273.64,695,279.4s23.63,51.09,23.63,51.09Z" transform="translate(-35.9 -73.95)" style="fill:#fff"/><path d="M604.29,719.22c3.33-32.53,2.23-65.33,2.1-98,0-6.78,1.39-13.65-.43-20.86-3.26.77-4.07,2.68-5.2,4.2-23.45,31.85-53.3,53.61-93.38,59.22-5.36.75-6.8,4-6.3,8.84,3.56,33.9,4.93,68,10,101.73,2.36,15.64,11.3,24,27.13,25.32a289,289,0,0,0,34.07.67,85.35,85.35,0,0,0,35.81-9.52c12.47-6.26,17.27-24,8.17-34C606.28,745.82,602.74,734.42,604.29,719.22Z" transform="translate(-35.9 -73.95)" style="fill:#a67c52"/><path d="M617,746.1c7.63,8.37,12,18.5,9.55,30.53-.75,3.74-3.33,7-2.82,11,10.84,3,31.89-5.58,36.24-14.77a9.44,9.44,0,0,0-.9-10.21,60.64,60.64,0,0,0-5.76-7.09c-8.73-8.74-10.16-18.54-4.95-29.62,10.22-21.76,12.23-44.74,9.09-68.22-3.17-23.75-11.65-35.65-31.24-42.81-11.23-4.11-13-2.35-13,9.56.1,33.8-.06,67.61-2.63,101.33C610,733.89,611.34,739.92,617,746.1Z" transform="translate(-35.9 -73.95)" style="fill:#a67c52"/><path d="M326.34,739.89c3-2.94,2.4-7.2,2.05-11.1-3.21-35.31-2.7-70.76-4.07-106.14-.33-8.5-2.33-10.24-10.69-7.62-15.55,4.88-26,15.53-29.2,31.2-5.06,24.66-6.17,49.72,5,73.2,7.56,15.9,6.26,29.15-6.74,41.1a16.65,16.65,0,0,0-2.15,2.52c-2.55,3.57-2.76,7.5-.16,10.84,8.42,10.8,20.72,13.23,34.07,15.2C306.73,769,312.44,753.51,326.34,739.89Z" transform="translate(-35.9 -73.95)" style="fill:#a67c52"/><path d="M426.94,660.54c-26.6-5.83-50.87-16.45-72.2-33.83-7.28-5.93-12.58-13.8-20.55-20.2-2.74,4-2.34,7.11-2.31,10,.41,37.66-.75,75.36,3,112.92a24.52,24.52,0,0,1-7,20.43,77,77,0,0,0-5.49,6.22c-8.79,11.7-4.43,29.14,8.8,35.18,23.59,10.77,48.28,11.06,73.29,7.29,13.37-2,21.38-9.63,22.86-23.45.26-2.47.75-4.93,1-7.41,3-31.16,5.85-62.33,8.88-93.48C438.24,663.72,437.58,662.87,426.94,660.54Z" transform="translate(-35.9 -73.95)" style="fill:#a67c52"/><path d="M501.64,761.18c-2.52-28.94-5-57.87-7.1-86.84-.5-6.79-3.46-9.54-10-8.78a109,109,0,0,1-28.93-.18c-7.6-1.14-11.52,2.24-11.66,10a65.53,65.53,0,0,1-.76,8.26c-4.55,30.92-2.95,62.49-9.6,93.19-1.48,6.83,1.23,9.9,8.16,9.81,9.13-.12,18.27,0,27.4,0v.45c8.58,0,17.16.12,25.74,0,11.42-.2,12.11-1.24,9.46-12.06A91.58,91.58,0,0,1,501.64,761.18Z" transform="translate(-35.9 -73.95)" style="fill:#a67c52"/><path d="M645.84,616.36c10.59,8.9,15.51,20.7,17.93,33.77,1.32,7.08,4.91,9.66,12.1,9.09a134.07,134.07,0,0,0,26.85-5.13c15.73-4.57,30-12.24,40.36-24.86,21.11-25.63,24.09-54.72,12.24-85.07-7.44-19-20.62-31.87-42.87-32.08-11.36-.11-19.05,4.4-23.25,15-2.44,6.16-4.36,12.54-6.6,18.79-5.8,16.17-11.59,32.21-23.76,45.19-6.45,6.9-15,11.07-21.9,17.81C639.24,613.34,643.14,614.09,645.84,616.36Z" transform="translate(-35.9 -73.95)" style="fill:#a67c52"/><path d="M561.28,283.7c-50.62-39.47-105.74-40.54-159.06-10.59C354.38,300,326.65,342.86,312,394.44c-14,49.47-14.27,99.63-1.39,149.4,8.93,34.5,27,63.6,56.57,84.47,32.7,23.07,69.9,30.82,109.2,30.68,4.71,0,9.43.14,14.13,0a137.27,137.27,0,0,0,14.06-1.08c45.11-6.41,76.39-32.56,99.72-70,15.71-25.25,25.35-52.92,31.46-81.76,5.91-28,10.1-56.46,6.05-85C633.78,364.55,606.3,318.81,561.28,283.7ZM369.24,495c-20.36-2.12-32.18-19-31.28-51.13,3.58-30.49,18.94-62.75,48.84-87,18.14-14.7,37.94-11.16,53.88,8.22,19.2,23.32,16,48.3,4.61,73.38A113.49,113.49,0,0,1,407.53,484C396.09,492.2,383.23,496.41,369.24,495Zm151.28,89.14c-9.22,16.75-26.81,25-53.52,25.2a59.94,59.94,0,0,1-34.8-9.16c-13-8.26-19.41-20.58-20.46-35.32-1.25-17.59,8.85-30.86,27.9-36.34,21.6-6.22,42.95-4.67,64.36,3,25.37,9.12,25.36,36.55,16.52,52.6Zm42.6-167.15c-.42,10.94-8.8,19.12-19.15,18.7-10.91-.44-18.57-9.07-18.27-20.56.27-10,8.88-17.69,19.41-17.4,11.5.29,18.45,7.74,18,19.26Z" transform="translate(-35.9 -73.95)" style="fill:#a67c52"/><path d="M716.53,281.77c-23.7-26.86-52.35-44.61-90.3-40.2-23,2.66-41.78,14.07-58.45,29.3-4.8,4.39-8.25,5.4-14.12,1.29a130.63,130.63,0,0,0-58.31-22.52c-32.37-4.28-63,2.3-91.73,17-8.92,4.56-14.43,3.66-21.87-2.61-37.39-31.53-85.69-30.77-123,1.06-27.67,23.62-46,53.73-59.67,86.78-9.47,22.95-15.51,47-12.25,72.19,2,15.1,7.62,28.48,22.64,35.4,18.87,8.7,40.85,3.49,55-12.85,16.21-18.67,24.18-41.45,32.11-64.25,5.65-16.2,10.76-32.62,16.62-48.76,2.45-6.76,6-13.39,13.95-15.3,3.53-.84,7.39-.9,10.14,2.06,3.16,3.42.07,6.39-1.6,8.9-17.3,26-27.62,54.95-33.54,85.21-8,41.22-7.8,82.61,1.91,123.75a195.4,195.4,0,0,0,19.33,49.29c6.55,12,4,17.21-9.05,20.7-20.22,5.45-32.4,18.76-36.55,38.93-5.33,26-5.44,51.79,6.2,76.48,5.55,11.8,4.72,21.83-5.16,31.58-9.7,9.59-8.47,19.8,2.22,28.55,10.5,8.57,23.23,11.55,36.33,12.7a154.26,154.26,0,0,1,27.72,4.68c20.64,5.68,41.68,5.2,62.6,1,5.7-1.14,11.43-2.88,16-6.6,3.54-2.91,7.15-3.65,11.51-3.32,21,1.58,42.09,1.67,63.15,1.22,7-.16,13.46-.13,19.78,4.21,4.64,3.2,10.57,4.72,16.42,5.53,23.64,3.25,47,2.68,69.8-5.19a22.17,22.17,0,0,1,9-1.35c13.36.94,25.76-2.49,37.7-8.25,18.78-9,21.27-20.65,7.5-36.32-5.68-6.47-9.22-13.5-5.1-22,9-18.38,12.4-37.78,11.6-58.06-.19-5,2.1-7.7,7.16-8.32,7.69-1,15.42-1.84,23-3.3,43.56-8.32,72.67-42.67,71.46-84.1-.58-19.89-5-38.55-18.55-53.88-11.7-13.27-27.17-17.1-43.84-14.16-14.62,2.57-19.43,15.1-23.48,27.52-.6,1.84-1.06,3.73-1.59,5.6-6.39,22.65-16.57,42.87-36.38,57-6.9,4.91-14.25,8.46-23,8.25-4.6-.1-7.38-1.73-7.48-6.76-.15-8.31-.11-16.27,4.18-24.13A216.62,216.62,0,0,0,629.43,546c10.5-28.82,16-58.74,18-89.29a184.1,184.1,0,0,0-6.6-64.13,226.86,226.86,0,0,0-26.19-58.08c-5.17-8.2-3.9-11.62,5-14.78,10.67-3.77,17.62-.49,23.1,11.27,9.62,20.67,14.73,43,22.92,64.14,8.4,21.74,17.33,43.12,35.89,58.89,24,20.4,60.24,9.39,68.06-21.08,3.88-15.13,3-30.32-.3-45.33C760.6,348,743.38,312.22,716.53,281.77ZM248.4,310.85c-5.9,10.29-11.76,20.59-17.87,30.77-7.74,12.92-10.65,27.77-16.77,41.33-1.56,3.47-2.27,7.42-6.69,9.45-3.95-2.81-2.85-6.21-2.27-9.38a166.24,166.24,0,0,1,34.54-75.1,17.89,17.89,0,0,1,2.21-2.47c2-1.71,4.06-4.67,7-2.19C251.13,305.45,249.8,308.41,248.4,310.85Zm8.9-14.2c-3.11-.4-3.22-2.72-2.75-5.46,1.26-7.36,9-14.7,16.56-15.73,2.63-.36,4.44.4,4.8,3.16C276.41,282.21,261.43,296.94,257.3,296.65Zm57.13,492.44c-13.35-2-25.65-4.41-34.08-15.2-2.59-3.33-2.4-7.27.16-10.84a16.65,16.65,0,0,1,2.15-2.52c13-11.95,14.3-25.2,6.75-41.1-11.15-23.47-10-48.54-5-73.2,3.21-15.66,13.65-26.3,29.2-31.2,8.36-2.62,10.36-.88,10.69,7.62,1.36,35.38.86,70.83,4.06,106.14.36,3.87,1,8.14-2,11.1C312.44,753.51,306.73,769,314.43,789.09Zm112.92-13.94c-1.48,13.8-9.49,21.44-22.86,23.45-25,3.77-49.7,3.48-73.29-7.29-13.23-6-17.6-23.49-8.8-35.18a78.75,78.75,0,0,1,5.49-6.22,24.55,24.55,0,0,0,7-20.43c-3.76-37.56-2.6-75.26-3-112.92,0-2.94-.44-6.07,2.31-10,8,6.4,13.27,14.27,20.55,20.2,21.33,17.38,45.6,28,72.2,33.83,10.64,2.33,11.3,3.18,10.28,13.72-3,31.15-5.92,62.32-8.88,93.48C428.1,770.22,427.61,772.68,427.35,775.15ZM494.88,787c-8.58.15-17.16,0-25.74,0v-.45c-9.13,0-18.27-.09-27.4,0-6.93.1-9.64-3-8.16-9.81,6.66-30.7,5.06-62.27,9.6-93.19a65.53,65.53,0,0,0,.76-8.26c.14-7.78,4.06-11.16,11.66-10a109.11,109.11,0,0,0,28.94.18c6.53-.76,9.49,2,10,8.79,2.14,29,4.58,57.9,7.1,86.83a92.44,92.44,0,0,0,2.7,13.8C507,785.81,506.3,786.85,494.88,787Zm113.26,3.73a85.39,85.39,0,0,1-35.82,9.52,288.74,288.74,0,0,1-34.06-.66c-15.84-1.34-24.77-9.69-27.14-25.33-5.1-33.73-6.47-67.84-10-101.73-.51-4.8.94-8.1,6.3-8.84,40.07-5.6,69.93-27.37,93.38-59.22,1.13-1.52,1.94-3.43,5.2-4.2,1.81,7.22.4,14.08.43,20.87.12,32.7,1.22,65.5-2.1,98-1.56,15.21,2,26.6,12,37.6,9.1,10,4.31,27.71-8.16,34Zm50.7-199.7c12.16-13,17.95-29,23.76-45.19,2.24-6.25,4.15-12.63,6.6-18.79,4.2-10.62,11.88-15.13,23.25-15,22.24.21,35.43,13,42.86,32.08,11.86,30.35,8.87,59.45-12.23,85.07-10.4,12.62-24.64,20.29-40.37,24.86a133.93,133.93,0,0,1-26.85,5.13c-7.2.57-10.78-2-12.09-9.09-2.43-13.07-7.35-24.87-17.94-33.77-2.7-2.27-6.6-3-8.89-7.47,6.93-6.73,15.44-10.9,21.9-17.8Zm-45.6,33.42c0-11.91,1.71-13.66,13-9.56,19.58,7.16,28.06,19.06,31.24,42.81,3.13,23.48,1.12,46.46-9.1,68.23-5.2,11.07-3.78,20.88,5,29.61a61.68,61.68,0,0,1,5.76,7.09,9.49,9.49,0,0,1,.9,10.22c-4.36,9.18-25.4,17.78-36.24,14.76-.52-4,2.06-7.29,2.82-11,2.44-12-1.92-22.15-9.56-30.53-5.62-6.18-7-12.21-6.37-20.27,2.58-33.71,2.74-67.52,2.64-101.32ZM641.8,421.1c4.05,28.5-.14,57-6,85-6.11,28.86-15.74,56.52-31.45,81.78-23.33,37.48-54.6,63.63-99.72,70A140.63,140.63,0,0,1,490.52,659c-4.7.18-9.42,0-14.13,0-39.3.14-76.48-7.61-109.2-30.68-29.59-20.87-47.64-50-56.57-84.47C297.74,494.08,298,443.92,312,394.46c14.63-51.6,42.36-94.46,90.19-121.33,53.33-29.95,108.45-28.89,159.07,10.58,45,35.1,72.51,80.84,80.54,137.4Zm88.88-91.36c-2.48,1.84-4.3-.06-5.36-2-7.74-14.19-19-25.7-29-38.14-1.2-1.5-2.21-3.26-.27-6.15,6.16.13,8.91,5.28,12.57,8.62,9.72,8.85,16.14,20.19,22.29,31.63C731.92,325.56,733,328,730.68,329.74Z" transform="translate(-35.9 -73.95)" style="fill:#603813"/><path d="M445.29,438.44c11.4-25.07,14.59-50.06-4.61-73.38-15.94-19.38-35.74-22.92-53.88-8.22-29.9,24.24-45.26,56.5-48.85,87-.9,32.18,10.92,49,31.29,51.14,14,1.46,26.85-2.75,38.29-11A113.59,113.59,0,0,0,445.29,438.44Zm-48.62-20c-4.8-.77-7.11-3.16-6.93-7.42.16-3.71,2-6.51,6-6.66,4.39-.15,6.52,2.59,6.79,6.74.29,4.47-2.76,6.17-5.82,7.34Z" transform="translate(-35.9 -73.95)" style="fill:#603813"/><path d="M504,531.5c-21.41-7.69-42.77-9.25-64.37-3-19.05,5.49-29.15,18.76-27.9,36.35,1.05,14.74,7.5,27,20.46,35.32a59.78,59.78,0,0,0,34.8,9.15c26.7-.16,44.3-8.45,53.53-25.2C529.36,568,529.37,540.61,504,531.5Z" transform="translate(-35.9 -73.95)" style="fill:#603813"/><path d="M545.11,397.67c-10.53-.28-19.14,7.45-19.41,17.4-.3,11.5,7.36,20.12,18.27,20.56,10.35.42,18.73-7.76,19.15-18.69C563.56,405.42,556.61,398,545.11,397.67ZM537.67,418c-4.2-.39-6.67-2.46-6.85-6.71s1.77-6.87,6.18-6.82c3.81,0,6.14,2.25,6.36,6.07.22,4-1.43,6.84-5.69,7.46Z" transform="translate(-35.9 -73.95)" style="fill:#603813"/></svg>