<svg xmlns="http://www.w3.org/2000/svg" viewBox="0 0 1953.99 1881.89"><defs><style>.a{fill:#a67c52;}.b{fill:#603813;}</style></defs><title>Perro-Logo</title><path class="a" d="M1692.51,1933.91c11.09-108.42,7.42-217.76,7-326.77-.08-22.63,4.62-45.5-1.44-69.55-10.87,2.58-13.57,8.93-17.32,14-78.18,106.17-177.69,178.71-311.28,197.4-17.86,2.5-22.67,13.49-21,29.46,11.88,113,16.44,226.66,33.45,339.1,7.88,52.13,37.67,80,90.46,84.42,37.74,3.19,75.61,3.49,113.54,2.21,42.43-1.43,81.83-12.86,119.39-31.72,41.57-20.87,57.55-79.9,27.22-113.21C1699.15,2022.58,1687.33,1984.6,1692.51,1933.91Z" transform="translate(-298.1 -339.12)"/><path class="a" d="M1734.8,2023.52c25.44,27.92,40,61.67,31.85,101.78-2.52,12.46-11.12,23.43-9.4,36.77,36.13,10,106.28-18.6,120.8-49.23,5.54-11.68,4.81-23.46-3-34.05-6-8.16-12.07-16.49-19.21-23.63-29.12-29.12-33.86-61.8-16.52-98.72,34.07-72.56,40.78-149.15,30.32-227.42-10.58-79.17-38.84-118.83-104.13-142.7-37.44-13.68-43.28-7.83-43.16,31.86.33,112.68-.21,225.39-8.78,337.78C1711.52,1982.81,1716,2002.93,1734.8,2023.52Z" transform="translate(-298.1 -339.12)"/><path class="a" d="M766,2002.81c10-9.8,8-24,6.82-37-10.67-117.69-9-235.85-13.55-353.77-1.1-28.35-7.76-34.15-35.62-25.41-51.85,16.27-86.62,51.75-97.34,104-16.89,82.2-20.59,165.74,16.57,244,25.18,53,20.87,97.17-22.49,137a53.86,53.86,0,0,0-7.16,8.41c-8.51,11.88-9.18,25-.54,36.11,28.08,36,69.08,44.1,113.59,50.66C700.62,2100,719.66,2048.22,766,2002.81Z" transform="translate(-298.1 -339.12)"/><path class="a" d="M1101.34,1738.32c-88.66-19.42-169.56-54.84-240.67-112.76-24.28-19.78-41.94-46-68.5-67.33-9.15,13.26-7.81,23.69-7.7,33.5,1.36,125.52-2.49,251.21,10,376.39,2.71,27.09-5.2,48.9-23.32,68.09-6.32,6.71-12.77,13.4-18.3,20.74-29.33,39-14.77,97.14,29.32,117.27,78.64,35.9,160.93,36.87,244.31,24.32,44.56-6.71,71.25-32.13,76.18-78.17.88-8.26,2.51-16.44,3.3-24.71,9.89-103.87,19.51-207.76,29.61-311.61C1139,1748.92,1136.8,1746.08,1101.34,1738.32Z" transform="translate(-298.1 -339.12)"/><path class="a" d="M1350.32,2073.78c-8.39-96.44-16.53-192.9-23.65-289.44-1.67-22.66-11.55-31.83-33.32-29.28-32.19,3.76-64.28,4.19-96.45-.61-25.32-3.78-38.4,7.46-38.87,33.4a215.36,215.36,0,0,1-2.53,27.53c-15.18,103.09-9.84,208.3-32,310.65-4.94,22.76,4.11,33,27.2,32.69,30.44-.41,60.89-.1,91.33-.1v1.5c28.6,0,57.21.4,85.8-.09,38.07-.67,40.36-4.15,31.53-40.22C1355.62,2104.63,1351.67,2089.27,1350.32,2073.78Z" transform="translate(-298.1 -339.12)"/><path class="a" d="M1831,1591.07c35.3,29.66,51.7,69,59.78,112.54,4.38,23.61,16.34,32.22,40.31,30.31,30.61-2.43,60.25-8.59,89.51-17.09,52.42-15.24,99.89-40.8,134.54-82.87,70.36-85.42,80.3-182.39,40.79-283.57-24.78-63.46-68.73-106.24-142.89-106.94-37.87-.36-63.49,14.68-77.5,50.06-8.15,20.56-14.53,41.82-22,62.65-19.34,53.89-38.64,107.38-79.19,150.64-21.53,23-49.9,36.88-73,59.36C1809,1581,1822,1583.5,1831,1591.07Z" transform="translate(-298.1 -339.12)"/><path class="a" d="M1549.14,482.19c-168.73-131.58-352.47-135.12-530.22-35.29C859.47,536.46,767.05,679.38,718.28,851.33c-46.78,164.89-47.58,332.09-4.63,498,29.76,115,89.92,212,188.56,281.57,109,76.9,233,102.73,364,102.26,15.7,0,31.41.47,47.09-.13s31.39-1.41,46.88-3.61c150.37-21.37,254.63-108.53,332.38-233.47,52.38-84.17,84.51-176.39,104.86-272.54,19.72-93.23,33.68-188.18,20.19-283.2C1790.8,751.7,1699.2,599.21,1549.14,482.19ZM909,1186.36c-67.88-7.06-107.26-63.19-104.28-170.45C816.66,914.29,867.87,806.77,967.53,726,1028,677,1094,688.8,1147.14,753.39c64,77.72,53.42,161,15.37,244.61-28,61.51-70.74,112.17-125.88,151.79C998.51,1177.19,955.64,1191.22,909,1186.36Zm504.28,297.12c-30.75,55.85-89.38,83.48-178.42,84-37.8,1.45-78.74-6.71-116-30.51-43.18-27.56-64.7-68.61-68.19-117.73-4.16-58.64,29.51-102.87,93-121.16,72-20.73,143.18-15.54,214.54,10.09C1442.76,1338.55,1442.72,1430,1413.27,1483.48Zm142-557.15c-1.4,36.46-29.34,63.73-63.86,62.33-36.35-1.48-61.87-30.22-60.87-68.55.87-33.18,29.59-58.94,64.7-58C1533.56,863.09,1556.75,887.91,1555.28,926.33Z" transform="translate(-298.1 -339.12)"/><path class="b" d="M2066.65,475.75c-79-89.53-174.53-148.69-301-134-76.53,8.87-139.28,46.9-194.84,97.66-16,14.65-27.5,18-47.06,4.32C1465.4,403,1400,378,1329.37,368.66c-107.9-14.26-210,7.68-305.76,56.6-29.73,15.19-48.1,12.21-72.91-8.71C826.06,311.45,665.08,314,540.81,420.08c-92.25,78.73-153.43,179.1-198.91,289.29C310.33,785.85,290.2,866,301.07,950c6.52,50.34,25.41,94.92,75.47,118,62.88,29,136.15,11.61,183.43-42.84C614,962.94,640.56,887,667,811c18.82-54,35.88-108.73,55.39-162.53,8.17-22.56,19.87-44.66,46.52-51,11.77-2.8,24.61-3,33.79,6.86,10.55,11.39.23,21.31-5.33,29.66-57.68,86.71-92.08,183.18-111.79,284.05-26.85,137.38-26,275.36,6.37,412.49,13.68,58,35.81,112.17,64.41,164.31,21.85,39.84,13.26,57.34-30.17,69-67.39,18.14-108,62.52-121.82,129.75-17.76,86.6-18.14,172.64,20.65,254.94,18.53,39.32,15.75,72.76-17.17,105.27-32.36,31.95-28.24,66,7.4,95.15,35,28.59,77.43,38.52,121.08,42.35,31.34,2.75,61.76,7.17,92.39,15.6,68.81,18.94,138.95,17.31,208.69,3.41,19-3.78,38.09-9.57,53.25-22,11.81-9.7,23.83-12.15,38.38-11.06,70.07,5.26,140.28,5.58,210.48,4.06,23.24-.51,44.88-.42,65.94,14.05,15.48,10.65,35.23,15.73,54.74,18.42,78.81,10.85,156.64,8.94,232.66-17.3,9.71-3.35,19.47-5.22,29.87-4.49,44.55,3.12,85.87-8.31,125.68-27.5,62.6-30.18,70.9-68.82,25-121.06-18.94-21.56-30.74-45-17-73.2,29.86-61.27,41.34-125.93,38.67-193.55-.66-16.73,7-25.65,23.85-27.73,25.65-3.17,51.4-6.11,76.76-11,145.21-27.73,242.25-142.22,238.21-280.34-1.94-66.29-16.78-128.47-61.82-179.57-39-44.24-90.58-57-146.15-47.22-48.72,8.58-64.76,50.34-78.26,91.74-2,6.14-3.54,12.44-5.29,18.66-21.3,75.5-55.25,142.91-121.28,189.85-23,16.36-47.49,28.19-76.74,27.5-15.33-.36-24.59-5.79-24.91-22.54-.52-27.72-.37-54.23,13.92-80.45,17.15-31.45,30.62-65.19,42.94-98.94,35-96.07,53.17-195.82,59.9-297.64,4.78-72.4-1.62-143.44-22-213.77-20-69-49.22-133.07-87.32-193.59-17.22-27.35-13-38.74,16.77-49.27,35.57-12.59,58.75-1.66,77,37.55,32.07,68.89,49.12,143.2,76.42,213.8,28,72.47,57.77,143.75,119.63,196.31,80,68,200.78,31.31,226.86-70.28,12.93-50.42,9.95-101.05-1-151.09C2213.53,696.47,2156.14,577.25,2066.65,475.75ZM506.21,572.68C486.55,607,467,641.34,446.64,675.25c-25.8,43.08-35.52,92.57-55.92,137.79-5.19,11.54-7.55,24.73-22.28,31.5-13.17-9.38-9.51-20.7-7.57-31.29C378,720,416.75,636.75,476,562.91a59,59,0,0,1,7.36-8.23c6.74-5.7,13.53-15.54,23.3-7.28C515.29,554.68,510.88,564.55,506.21,572.68Zm29.66-47.33c-10.36-1.34-10.73-9.07-9.16-18.19,4.2-24.52,30-49,55.2-52.42,8.75-1.21,14.8,1.33,16,10.53C599.56,477.23,549.64,526.33,535.87,525.35ZM726.3,2166.81c-44.51-6.56-85.51-14.68-113.59-50.66-8.64-11.08-8-24.23.54-36.11a53.86,53.86,0,0,1,7.16-8.41c43.36-39.84,47.67-84,22.49-137-37.16-78.25-33.46-161.79-16.57-244,10.72-52.2,45.49-87.68,97.34-104,27.86-8.74,34.52-2.94,35.62,25.41,4.56,117.92,2.88,236.08,13.55,353.77,1.18,12.92,3.2,27.15-6.82,37C719.66,2048.22,700.62,2100,726.3,2166.81Zm376.39-46.44c-4.93,46-31.62,71.46-76.18,78.17-83.38,12.55-165.67,11.58-244.31-24.32-44.09-20.13-58.65-78.3-29.32-117.27,5.53-7.34,12-14,18.3-20.74,18.12-19.19,26-41,23.32-68.09-12.52-125.18-8.67-250.87-10-376.39-.11-9.81-1.45-20.24,7.7-33.5,26.56,21.32,44.22,47.55,68.5,67.33,71.11,57.92,152,93.34,240.67,112.76,35.46,7.76,37.68,10.6,34.26,45.73-10.1,103.85-19.72,207.74-29.61,311.61C1105.2,2103.93,1103.57,2112.11,1102.69,2120.37ZM1327.8,2160c-28.59.49-57.2.09-85.8.09v-1.5c-30.44,0-60.89-.31-91.33.1-23.09.32-32.14-9.93-27.2-32.69,22.19-102.35,16.85-207.56,32-310.65a215.36,215.36,0,0,0,2.53-27.53c.47-25.94,13.55-37.18,38.87-33.4,32.17,4.8,64.26,4.37,96.45.61,21.77-2.55,31.65,6.62,33.32,29.28,7.12,96.54,15.26,193,23.65,289.44,1.35,15.49,5.3,30.85,9,46C1368.16,2155.88,1365.87,2159.36,1327.8,2160Zm377.53,12.44c-37.56,18.86-77,30.29-119.39,31.72-37.93,1.28-75.8,1-113.54-2.21-52.79-4.46-82.58-32.29-90.46-84.42-17-112.44-21.57-226.14-33.45-339.1-1.68-16,3.13-27,21-29.46,133.59-18.69,233.1-91.23,311.28-197.4,3.75-5.08,6.45-11.43,17.32-14,6.06,24.05,1.36,46.92,1.44,69.55.41,109,4.08,218.35-7,326.77-5.18,50.69,6.64,88.67,40,125.35C1762.88,2092.57,1746.9,2151.6,1705.33,2172.47Zm169-665.67c40.55-43.26,59.85-96.75,79.19-150.64,7.47-20.83,13.85-42.09,22-62.65,14-35.38,39.63-50.42,77.5-50.06,74.16.7,118.11,43.48,142.89,106.94,39.51,101.18,29.57,198.15-40.79,283.57-34.65,42.07-82.12,67.63-134.54,82.87-29.26,8.5-58.9,14.66-89.51,17.09-24,1.91-35.93-6.7-40.31-30.31-8.08-43.54-24.48-82.88-59.78-112.54-9-7.57-22-10.11-29.65-24.91C1824.43,1543.68,1852.8,1529.78,1874.33,1506.8Zm-152,111.38c-.12-39.69,5.72-45.54,43.16-31.86,65.29,23.87,93.55,63.53,104.13,142.7,10.46,78.27,3.75,154.86-30.32,227.42-17.34,36.92-12.6,69.6,16.52,98.72,7.14,7.14,13.18,15.47,19.21,23.63,7.81,10.59,8.54,22.37,3,34.05-14.52,30.63-84.67,59.28-120.8,49.23-1.72-13.34,6.88-24.31,9.4-36.77,8.14-40.11-6.41-73.86-31.85-101.78-18.76-20.59-23.28-40.71-21.23-67.56C1722.14,1843.57,1722.68,1730.86,1722.35,1618.18Zm95.22-677.95c13.49,95-.47,190-20.19,283.2C1777,1319.58,1744.9,1411.8,1692.52,1496c-77.75,124.94-182,212.1-332.38,233.47-15.49,2.2-31.23,3-46.88,3.61s-31.39.13-47.09.13c-131,.47-254.92-25.36-364-102.26-98.64-69.57-158.8-166.6-188.56-281.57-42.95-165.93-42.15-333.13,4.63-498,48.77-172,141.19-314.87,300.64-404.43,177.75-99.83,361.49-96.29,530.22,35.29C1699.2,599.21,1790.8,751.7,1817.57,940.23ZM2113.8,635.67c-8.25,6.12-14.32-.21-17.86-6.71-25.8-47.3-63.23-85.68-96.63-127.15-4-5-7.37-10.84-.91-20.5,20.55.46,29.7,17.63,41.9,28.74,32.39,29.52,53.8,67.31,74.29,105.44C2117.94,621.72,2121.39,630,2113.8,635.67Z" transform="translate(-298.1 -339.12)"/><path class="b" d="M1162.51,998c38-83.57,48.63-166.89-15.37-244.61C1094,688.8,1028,677,967.53,726c-99.66,80.8-150.87,188.32-162.82,289.94-3,107.26,36.4,163.39,104.28,170.45,46.65,4.86,89.52-9.17,127.64-36.57C1091.77,1110.17,1134.51,1059.51,1162.51,998Zm-162.09-66.55c-16-2.56-23.69-10.52-23.09-24.72.53-12.38,6.53-21.72,19.88-22.2,14.61-.52,21.74,8.63,22.63,22.45C1020.79,921.89,1010.63,927.56,1000.42,931.45Z" transform="translate(-298.1 -339.12)"/><path class="b" d="M1358.22,1308.19c-71.36-25.63-142.54-30.82-214.54-10.09-63.52,18.29-97.19,62.52-93,121.16,3.49,49.12,25,90.17,68.19,117.73,37.27,23.8,78.21,32,116,30.51,89-.54,147.67-28.17,178.42-84C1442.72,1430,1442.76,1338.55,1358.22,1308.19Z" transform="translate(-298.1 -339.12)"/><path class="b" d="M1495.25,862.09c-35.11-.92-63.83,24.84-64.7,58-1,38.33,24.52,67.07,60.87,68.55,34.52,1.4,62.46-25.87,63.86-62.33C1556.75,887.91,1533.56,863.09,1495.25,862.09Zm-24.83,67.63c-14-1.3-22.23-8.21-22.83-22.35s5.92-22.91,20.61-22.76c12.69.13,20.46,7.51,21.19,20.24C1490.14,918.15,1484.63,927.65,1470.42,929.72Z" transform="translate(-298.1 -339.12)"/></svg>